####
#
# OBJ File Generated by Meshlab
#
####
# Object armchair.obj
#
# Vertices: 124
# Faces: 194
#
####
mtllib ./armchair.obj.mtl

vn 0.549204 -0.629880 -0.549205
v -0.741251 -0.401814 -0.727169 1.000000 1.000000 1.000000
vn -0.549205 -0.629880 -0.549205
v -0.794026 -0.401814 -0.727169 1.000000 1.000000 1.000000
vn 0.699998 -0.141446 -0.699997
v -0.700654 0.000000 -0.767765 0.501961 0.250980 0.007843
vn -0.699998 -0.141444 -0.699998
v -0.834622 0.000000 -0.767765 0.501961 0.250980 0.007843
vn 0.699998 -0.141446 0.699997
v -0.700654 0.000000 -0.633798 0.501961 0.250980 0.007843
vn -0.699998 -0.141444 0.699998
v -0.834622 0.000000 -0.633798 0.501961 0.250980 0.007843
vn 0.549204 -0.629880 0.549205
v -0.741251 -0.401814 -0.674394 1.000000 1.000000 1.000000
vn -0.549205 -0.629880 0.549205
v -0.794026 -0.401814 -0.674394 1.000000 1.000000 1.000000
vn -0.549205 -0.629880 -0.549205
v 0.768831 -0.401814 -0.727169 1.000000 1.000000 1.000000
vn 0.549204 -0.629880 -0.549205
v 0.821606 -0.401814 -0.727169 1.000000 1.000000 1.000000
vn -0.699998 -0.141444 -0.699998
v 0.728235 0.000000 -0.767765 0.501961 0.250980 0.007843
vn 0.699998 -0.141446 -0.699997
v 0.862203 0.000000 -0.767765 0.501961 0.250980 0.007843
vn -0.699998 -0.141444 0.699998
v 0.728235 0.000000 -0.633798 0.501961 0.250980 0.007843
vn 0.699998 -0.141446 0.699997
v 0.862203 0.000000 -0.633798 0.501961 0.250980 0.007843
vn -0.549205 -0.629880 0.549205
v 0.768831 -0.401814 -0.674394 1.000000 1.000000 1.000000
vn 0.549204 -0.629880 0.549205
v 0.821606 -0.401814 -0.674394 1.000000 1.000000 1.000000
vn 0.549204 -0.629881 0.549204
v -0.741251 -0.401814 0.559879 1.000000 1.000000 1.000000
vn -0.549205 -0.629880 0.549204
v -0.794026 -0.401814 0.559879 1.000000 1.000000 1.000000
vn 0.699997 -0.141448 0.699997
v -0.700654 -0.000000 0.600476 0.501961 0.250980 0.007843
vn -0.699997 -0.141446 0.699998
v -0.834622 -0.000000 0.600476 0.501961 0.250980 0.007843
vn 0.699998 -0.141446 -0.699997
v -0.700654 -0.000000 0.466508 0.501961 0.250980 0.007843
vn -0.699998 -0.141444 -0.699998
v -0.834622 -0.000000 0.466508 0.501961 0.250980 0.007843
vn 0.549204 -0.629880 -0.549205
v -0.741251 -0.401814 0.507104 1.000000 1.000000 1.000000
vn -0.549205 -0.629880 -0.549205
v -0.794026 -0.401814 0.507104 1.000000 1.000000 1.000000
vn -0.549205 -0.629880 0.549204
v 0.768831 -0.401814 0.559879 1.000000 1.000000 1.000000
vn 0.549204 -0.629881 0.549204
v 0.821606 -0.401814 0.559879 1.000000 1.000000 1.000000
vn -0.699997 -0.141446 0.699998
v 0.728235 -0.000000 0.600476 0.501961 0.250980 0.007843
vn 0.699997 -0.141448 0.699997
v 0.862203 -0.000000 0.600476 0.501961 0.250980 0.007843
vn -0.699998 -0.141444 -0.699998
v 0.728235 -0.000000 0.466508 0.501961 0.250980 0.007843
vn 0.699998 -0.141446 -0.699997
v 0.862203 -0.000000 0.466508 0.501961 0.250980 0.007843
vn -0.549205 -0.629880 -0.549205
v 0.768831 -0.401814 0.507104 1.000000 1.000000 1.000000
vn 0.549204 -0.629880 -0.549205
v 0.821606 -0.401814 0.507104 1.000000 1.000000 1.000000
vn -0.577350 0.423329 -0.698183
v -0.727857 1.353644 -0.795910 0.501961 0.250980 0.007843
vn 0.577350 0.423329 -0.698183
v 0.750621 1.353644 -0.795910 0.501961 0.250980 0.007843
vn -0.577350 -0.698183 -0.423329
v -0.727857 0.453937 -0.575416 0.501961 0.250980 0.007843
vn 0.577350 -0.698183 -0.423329
v 0.750621 0.453937 -0.575416 0.501961 0.250980 0.007843
vn -0.679428 0.710539 0.183061
v -0.727857 1.401998 -0.598608 0.501961 0.250980 0.007843
vn -0.717284 -0.541427 0.438589
v -0.727857 0.502291 -0.378114 0.501961 0.250980 0.007843
vn -0.297111 -0.441412 0.846688
v -0.677078 0.514378 -0.328794 0.501961 0.250980 0.007843
vn 0.679429 0.710539 0.183061
v 0.750621 1.401998 -0.598608 0.501961 0.250980 0.007843
vn 0.297110 -0.441412 0.846688
v 0.699842 0.514378 -0.328794 0.501961 0.250980 0.007843
vn 0.717285 -0.541426 0.438589
v 0.750621 0.502291 -0.378114 0.501961 0.250980 0.007843
vn -0.290244 0.631388 0.719102
v -0.677078 1.389428 -0.543246 0.501961 0.250980 0.007843
vn 0.290244 0.631388 0.719102
v 0.699842 1.389428 -0.543246 0.501961 0.250980 0.007843
vn -1.000000 0.000000 0.000000
v -0.727857 0.249228 -0.739239 0.501961 0.250980 0.007843
vn 1.000000 0.000000 0.000000
v 0.750621 0.249228 -0.739239 0.501961 0.250980 0.007843
vn -0.923880 0.382683 0.000000
v -0.727857 0.452369 -0.739239 0.501961 0.250980 0.007843
vn -0.382684 0.923879 0.000001
v -0.677078 0.503148 -0.739239 0.501961 0.250980 0.007843
vn 0.382683 0.923880 0.000001
v 0.699842 0.503148 -0.739239 0.501961 0.250980 0.007843
vn 0.923879 0.382684 0.000000
v 0.750621 0.452369 -0.739239 0.501961 0.250980 0.007843
vn -0.366190 0.409262 0.835709
v -0.693437 0.452368 0.739239 0.501961 0.250980 0.007843
vn -0.835702 0.409270 0.366196
v -0.727857 0.452369 0.704819 0.501961 0.250980 0.007843
vn -0.113226 0.915444 0.386190
v -0.642658 0.503147 0.688460 0.501961 0.250980 0.007843
vn -0.386184 0.915445 0.113232
v -0.677078 0.503147 0.654041 0.501961 0.250980 0.007843
vn 0.386185 0.915446 0.113228
v 0.699842 0.503147 0.654041 0.501961 0.250980 0.007843
vn 0.113227 0.915446 0.386185
v 0.665423 0.503147 0.688460 0.501961 0.250980 0.007843
vn 0.835705 0.409267 0.366193
v 0.750621 0.452369 0.704819 0.501961 0.250980 0.007843
vn 0.366192 0.409267 0.835706
v 0.716201 0.452369 0.739239 0.501961 0.250980 0.007843
vn 0.382683 0.000000 0.923880
v 0.716201 0.249228 0.739239 0.501961 0.250980 0.007843
vn 0.923879 0.000000 0.382684
v 0.750621 0.249228 0.704819 0.501961 0.250980 0.007843
vn -0.923879 0.000000 0.382684
v -0.727857 0.249228 0.704819 0.501961 0.250980 0.007843
vn -0.382683 0.000000 0.923880
v -0.693437 0.249228 0.739239 0.501961 0.250980 0.007843
vn -0.301511 -0.904534 0.301511
v 0.755058 0.000000 -0.749048 0.501961 0.250980 0.007843
vn 0.577350 -0.577350 -0.577350
v 1.011374 0.000000 -0.937654 0.513725 0.266667 0.031373
vn 0.000000 -0.707107 -0.707107
v 0.755058 0.000000 -0.937654 0.501961 0.250980 0.007843
vn 0.301511 -0.904534 0.301511
v -0.732236 0.000000 -0.749048 0.501961 0.250980 0.007843
vn -0.577351 -0.577351 -0.577349
v -0.988553 0.000000 -0.937654 0.501961 0.250980 0.007843
vn 0.000000 -0.707107 -0.707107
v -0.732236 0.000000 -0.937654 0.501961 0.250980 0.007843
vn -0.577350 0.577350 -0.577350
v -0.732236 1.171347 -0.937654 0.501961 0.250980 0.007843
vn 0.577350 0.577350 -0.577350
v 0.755058 1.171347 -0.937654 0.501961 0.250980 0.007843
vn -0.577350 0.577350 0.577350
v -0.732236 1.171347 -0.749048 0.501961 0.250980 0.007843
vn 0.577350 0.577350 0.577350
v 0.755058 1.171347 -0.749048 0.501961 0.250980 0.007843
vn 0.549133 0.227458 0.804186
v 0.755058 0.808225 -0.749048 0.501961 0.250980 0.007843
vn -0.549133 0.227459 0.804186
v 0.755058 0.756967 -0.749048 0.501961 0.250980 0.007843
vn 0.000000 0.959683 0.281085
v 0.780687 0.782596 -0.749048 0.501961 0.250980 0.007843
vn 0.297109 0.717284 -0.630262
v 0.985745 0.782596 -0.937654 0.501961 0.250980 0.007843
vn 0.717284 0.297109 -0.630262
v 1.011374 0.756967 -0.937654 0.501961 0.250980 0.007843
vn 0.000000 0.000000 -1.000000
v 0.737206 0.779478 -0.937654 0.501961 0.250980 0.007843
vn 0.000000 0.000000 -1.000000
v 0.736935 0.782596 -0.937654 0.501961 0.250980 0.007843
vn 0.549133 0.227458 -0.804186
v 0.755058 0.808225 -0.937654 0.501961 0.250980 0.007843
vn 0.227458 0.549133 -0.804186
v 0.780687 0.782596 -0.937654 0.501961 0.250980 0.007843
vn 0.000000 0.000000 -1.000000
v 0.755058 0.764474 -0.937654 0.501961 0.250980 0.007843
vn -0.549127 0.227462 0.804189
v -0.732236 0.808225 -0.749048 0.501961 0.250980 0.007843
vn 0.000000 0.959686 0.281076
v -0.757866 0.782596 -0.749048 0.501961 0.250980 0.007843
vn 0.549128 0.227463 0.804189
v -0.732236 0.756967 -0.749048 0.501961 0.250980 0.007843
vn 0.000000 0.000000 -1.000000
v -0.714182 0.784163 -0.937654 0.501961 0.250980 0.007843
vn 0.000000 0.000000 -1.000000
v -0.714113 0.782596 -0.937654 0.501961 0.250980 0.007843
vn 0.000000 0.000000 -1.000000
v -0.732236 0.764474 -0.937654 0.501961 0.250980 0.007843
vn -0.227454 0.549138 -0.804184
v -0.757866 0.782596 -0.937654 0.501961 0.250980 0.007843
vn -0.549127 0.227462 -0.804189
v -0.732236 0.808225 -0.937654 0.501961 0.250980 0.007843
vn -0.717282 0.297116 -0.630261
v -0.988553 0.756967 -0.937654 0.501961 0.250980 0.007843
vn -0.297101 0.717285 -0.630264
v -0.962923 0.782596 -0.937654 0.501961 0.250980 0.007843
vn -0.366204 0.409265 0.835702
v 0.775561 0.756967 0.749048 0.501961 0.250980 0.007843
vn -0.835710 0.409265 0.366184
v 0.755058 0.756967 0.728544 0.501961 0.250980 0.007843
vn -0.113225 0.915445 0.386188
v 0.801191 0.782596 0.723419 0.501961 0.250980 0.007843
vn -0.386189 0.915444 0.113226
v 0.780687 0.782596 0.702915 0.501961 0.250980 0.007843
vn 0.386190 0.915444 0.113224
v 0.985745 0.782596 0.702915 0.501961 0.250980 0.007843
vn 0.113233 0.915443 0.386189
v 0.965242 0.782596 0.723419 0.501961 0.250980 0.007843
vn 0.835707 0.409263 0.366193
v 1.011374 0.756967 0.728544 0.501961 0.250980 0.007843
vn 0.366193 0.409262 0.835708
v 0.990870 0.756967 0.749048 0.501961 0.250980 0.007843
vn -0.717286 -0.630265 0.297099
v 0.755058 -0.000000 0.728544 0.501961 0.250980 0.007843
vn -0.297118 -0.630260 0.717281
v 0.775561 -0.000000 0.749048 0.501961 0.250980 0.007843
vn 0.297108 -0.630263 0.717283
v 0.990870 -0.000000 0.749048 0.501961 0.250980 0.007843
vn 0.717284 -0.630262 0.297109
v 1.011374 -0.000000 0.728544 0.501961 0.250980 0.007843
vn 0.835706 0.409267 0.366191
v -0.732236 0.756967 0.728544 0.501961 0.250980 0.007843
vn 0.366194 0.409265 0.835706
v -0.752740 0.756967 0.749048 0.501961 0.250980 0.007843
vn 0.386181 0.915448 0.113223
v -0.757866 0.782596 0.702915 0.501961 0.250980 0.007843
vn 0.113231 0.915444 0.386188
v -0.778369 0.782596 0.723419 0.501961 0.250980 0.007843
vn -0.366194 0.409267 0.835705
v -0.968049 0.756967 0.749048 0.501961 0.250980 0.007843
vn -0.835705 0.409269 0.366192
v -0.988553 0.756967 0.728544 0.501961 0.250980 0.007843
vn -0.386180 0.915448 0.113227
v -0.962923 0.782596 0.702915 0.501961 0.250980 0.007843
vn -0.113225 0.915444 0.386188
v -0.942419 0.782596 0.723419 0.501961 0.250980 0.007843
vn 0.297109 -0.630262 0.717284
v -0.752740 -0.000000 0.749048 0.501961 0.250980 0.007843
vn 0.717284 -0.630263 0.297108
v -0.732236 -0.000000 0.728544 0.501961 0.250980 0.007843
vn -0.717283 -0.630263 0.297108
v -0.988553 -0.000000 0.728544 0.501961 0.250980 0.007843
vn -0.297109 -0.630262 0.717284
v -0.968049 -0.000000 0.749048 0.501961 0.250980 0.007843
vn 0.000000 -0.707107 0.707107
v -0.762471 -0.000000 0.749048 0.501961 0.250980 0.007843
vn 0.000000 -0.707107 0.707107
v 0.762471 -0.000000 0.749048 0.501961 0.250980 0.007843
vn 0.000000 0.707107 0.707107
v -0.762471 0.246423 0.749048 0.501961 0.250980 0.007843
vn 0.000000 0.707107 0.707107
v 0.762471 0.246423 0.749048 0.501961 0.250980 0.007843
vn 0.000000 1.000000 0.000000
v -0.762471 0.246423 -0.749048 0.501961 0.250980 0.007843
vn 0.000000 1.000000 0.000000
v 0.762471 0.246423 -0.749048 0.501961 0.250980 0.007843
vn 0.000000 -1.000000 0.000000
v -0.762471 0.000000 -0.749048 0.501961 0.250980 0.007843
vn 0.000000 -1.000000 0.000000
v 0.762471 0.000000 -0.749048 0.501961 0.250980 0.007843
# 124 vertices, 0 vertices normals


usemtl material_0
vt 0.881433 0.168782
vt 0.881434 0.175130
vt 0.832857 0.163910
f 1/1/1 2/2/2 3/3/3
vt 0.832860 0.180023
f 3/3/3 2/2/2 4/4/4
vt 0.836061 0.148118
vt 0.842343 0.133280
vt 0.882695 0.162562
f 5/5/5 6/6/6 7/7/7
vt 0.885170 0.156716
f 7/7/7 6/6/6 8/8/8
vt 0.887780 0.168781
vt 0.887782 0.175129
f 7/9/7 8/10/8 1/1/1
f 1/1/1 8/10/8 2/2/2
vt 0.888759 0.151481
vt 0.851453 0.119990
f 2/11/2 8/8/8 4/12/4
f 4/12/4 8/8/8 6/6/6
f 7/7/7 1/1/1 5/5/5
f 5/5/5 1/1/1 3/3/3
vt 0.878939 0.246291
vt 0.874059 0.197716
vt 0.885286 0.246292
f 9/13/9 11/14/11 10/15/10
vt 0.890172 0.197717
f 10/15/10 11/14/11 12/16/12
vt 0.858268 0.200922
vt 0.872718 0.247554
vt 0.843431 0.207207
f 13/17/13 15/18/15 14/19/14
vt 0.866873 0.250030
f 14/19/14 15/18/15 16/20/16
vt 0.878938 0.252639
vt 0.885286 0.252639
f 15/21/15 9/13/9 16/22/16
f 16/22/16 9/13/9 10/15/10
vt 0.861638 0.253620
vt 0.830141 0.216319
f 10/23/10 12/24/12 16/20/16
f 16/20/16 12/24/12 14/19/14
f 15/18/15 13/17/13 9/13/9
f 9/13/9 13/17/13 11/14/11
f 17/13/17 19/14/19 18/15/18
f 18/15/18 19/14/19 20/16/20
f 21/17/21 23/18/23 22/19/22
f 22/19/22 23/18/23 24/20/24
f 23/21/23 17/13/17 24/22/24
f 24/22/24 17/13/17 18/15/18
f 18/23/18 20/24/20 24/20/24
f 24/20/24 20/24/20 22/19/22
f 23/18/23 21/17/21 17/13/17
f 17/13/17 21/17/21 19/14/19
vt 0.881681 0.169091
vt 0.881680 0.175438
vt 0.833106 0.164205
f 25/25/25 26/26/26 27/27/27
vt 0.833105 0.180318
f 27/27/27 26/26/26 28/28/28
vt 0.836314 0.148414
vt 0.842601 0.133578
vt 0.882944 0.162870
f 29/29/29 30/30/30 31/31/31
vt 0.885421 0.157026
f 31/31/31 30/30/30 32/32/32
vt 0.888028 0.169091
vt 0.888028 0.175439
f 31/33/31 32/34/32 25/25/25
f 25/25/25 32/34/32 26/26/26
vt 0.889011 0.151791
vt 0.851715 0.120290
f 26/35/26 32/32/32 28/36/28
f 28/36/28 32/32/32 30/30/30
f 31/31/31 25/25/25 29/29/29
f 29/29/29 25/25/25 27/27/27
vt 0.626714 0.741096
vt 0.904120 0.741078
vt 0.626725 0.914903
f 33/37/33 34/38/34 35/39/35
vt 0.904130 0.914885
f 35/39/35 34/38/34 36/40/36
vt 0.626697 0.475642
vt 0.904103 0.475625
vt 0.626700 0.513757
f 35/41/35 36/42/36 38/43/38
vt 0.636228 0.523284
f 38/43/38 36/42/36 39/44/39
vt 0.894579 0.523268
f 39/44/39 36/42/36 41/45/41
vt 0.904105 0.513740
f 36/42/36 42/46/42 41/45/41
vt 0.894589 0.692312
vt 0.636239 0.692328
f 44/47/44 43/48/43 41/45/41
f 41/45/41 43/48/43 39/44/39
vt 0.942235 0.741076
vt 0.942246 0.914883
f 40/49/40 42/50/42 34/38/34
f 34/38/34 42/50/42 36/40/36
vt 0.588610 0.914905
vt 0.588599 0.741098
f 38/51/38 37/52/37 35/39/35
f 35/39/35 37/52/37 33/37/33
vt 0.626712 0.702980
vt 0.904117 0.702963
f 37/53/37 40/54/40 33/37/33
f 33/37/33 40/54/40 34/38/34
f 44/47/44 40/54/40 43/48/43
f 43/48/43 40/54/40 37/53/37
vt 0.575125 0.745862
f 37/52/37 38/51/38 43/55/43
vt 0.575136 0.914906
f 43/55/43 38/51/38 39/56/39
vt 0.955709 0.745838
f 40/49/40 44/57/44 42/50/42
vt 0.955720 0.914882
f 42/50/42 44/57/44 41/58/41
vt 0.394359 0.919694
vt 0.135874 0.919734
vt 0.394282 0.658254
f 49/59/49 48/60/48 55/61/55
vt 0.387717 0.651953
f 55/61/55 48/60/48 56/62/56
vt 0.135842 0.658176
f 48/60/48 54/63/54 56/62/56
vt 0.142467 0.651783
f 54/63/54 53/64/53 56/62/56
vt 0.133149 0.638396
vt 0.124722 0.640495
vt 0.132858 0.600306
f 51/65/51 52/66/52 62/67/62
vt 0.123707 0.600734
f 62/67/62 52/66/52 61/68/61
f 52/66/52 51/65/51 54/63/54
f 54/63/54 51/65/51 53/64/53
vt 0.405557 0.641043
f 55/61/55 56/62/56 57/69/57
vt 0.397061 0.638562
f 57/69/57 56/62/56 58/70/58
vt 0.406902 0.600973
f 57/69/57 58/70/58 60/71/60
vt 0.397510 0.600553
f 60/71/60 58/70/58 59/72/59
vt 0.122364 0.648650
vt 0.122397 0.919732
f 52/73/52 54/63/54 47/74/47
f 47/74/47 54/63/54 48/60/48
f 53/64/53 51/65/51 56/62/56
f 56/62/56 51/65/51 58/70/58
vt 0.407753 0.648710
vt 0.407839 0.919684
f 57/75/57 50/76/50 55/61/55
f 55/61/55 50/76/50 49/59/49
f 51/65/51 62/67/62 58/70/58
f 58/70/58 62/67/62 59/72/59
vt 0.445873 0.648671
f 57/75/57 60/77/60 50/76/50
vt 0.445966 0.919647
f 50/76/50 60/77/60 46/78/46
vt 0.084274 0.919733
vt 0.084241 0.648659
f 45/79/45 61/80/61 47/74/47
f 47/74/47 61/80/61 52/73/52
vt 0.228520 0.320940
vt 0.075342 0.301579
vt 0.228513 0.301515
f 68/81/68 63/82/63 66/83/66
vt 0.075361 0.161518
vt 0.228395 0.161443
vt 0.228429 0.180873
f 70/84/70 69/85/69 71/86/71
vt 0.287572 0.121386
vt 0.261164 0.121643
vt 0.286784 0.042614
f 68/87/68 67/88/67 88/89/88
vt 0.284125 0.040773
f 88/89/88 67/88/67 89/90/89
vt 0.260382 0.043654
f 67/88/67 91/91/91 89/90/89
vt 0.262996 0.040986
f 92/92/92 89/90/89 91/91/91
vt 0.228473 0.223552
f 66/83/66 63/82/63 85/93/85
vt 0.075327 0.223616
f 63/82/63 74/94/74 85/93/85
vt 0.075328 0.218337
f 74/94/74 73/95/73 85/93/85
vt 0.075342 0.180938
f 72/96/72 71/86/71 73/95/73
vt 0.228468 0.218273
f 85/93/85 73/95/73 83/97/83
f 73/95/73 71/86/71 83/97/83
vt 0.247740 0.161853
vt 0.248133 0.124672
f 71/98/71 69/85/69 83/99/83
vt 0.228605 0.124012
f 83/99/83 69/85/69 90/100/90
vt 0.055475 0.124966
vt 0.075067 0.124115
vt 0.056114 0.161968
f 73/101/73 80/102/80 72/103/72
f 72/103/72 80/102/80 70/84/70
vt 0.226645 0.121517
f 70/84/70 86/104/86 69/85/69
f 86/104/86 90/100/90 69/85/69
f 70/84/70 71/86/71 72/96/72
vt 0.287755 0.140828
f 68/87/68 66/105/66 67/88/67
vt 0.377703 0.467250
vt 0.404122 0.447858
vt 0.404099 0.467284
f 64/106/64 63/107/63 65/108/65
vt 0.075349 0.321005
f 65/109/65 63/82/63 68/81/68
vt 0.228383 0.040773
vt 0.077003 0.121131
vt 0.075205 0.040819
f 68/110/68 78/111/78 65/112/65
vt 0.075188 0.119549
f 78/111/78 82/113/82 65/112/65
vt 0.403994 0.546016
f 65/108/65 82/114/82 64/106/64
vt 0.401352 0.547879
f 82/114/82 81/115/81 64/106/64
vt 0.377598 0.545208
f 64/106/64 81/115/81 77/116/77
vt 0.380234 0.547851
f 81/115/81 76/117/76 77/116/77
vt 0.226633 0.121355
vt 0.077024 0.121454
f 87/118/87 86/104/86 79/119/79
f 86/104/86 70/84/70 79/119/79
f 80/102/80 79/119/79 70/84/70
f 79/119/79 78/111/78 87/118/87
f 78/111/78 68/110/68 87/118/87
vt 0.228452 0.119478
f 88/120/88 87/118/87 68/110/68
vt 0.055179 0.121316
f 73/101/73 75/121/75 80/102/80
vt 0.074105 0.120546
f 80/102/80 75/121/75 81/122/81
vt 0.248382 0.120962
vt 0.229641 0.120394
f 84/123/84 83/99/83 89/124/89
f 89/124/89 83/99/83 90/100/90
vt 0.266270 0.546836
vt 0.266246 0.377794
vt 0.287400 0.546833
f 92/125/92 111/126/111 89/127/89
vt 0.287397 0.527399
f 89/127/89 111/126/111 84/128/84
vt 0.287433 0.377786
f 84/128/84 111/126/111 107/129/107
vt 0.268271 0.375681
f 111/126/111 112/130/112 107/129/107
vt 0.285406 0.375675
f 112/130/112 108/131/108 107/129/107
vt 0.051469 0.121736
f 73/101/73 74/132/74 75/121/75
f 80/102/80 81/122/81 79/119/79
f 79/119/79 81/122/81 78/111/78
f 78/111/78 81/122/81 82/113/82
vt 0.252099 0.121306
f 83/99/83 84/123/84 85/133/85
f 89/124/89 90/100/90 88/120/88
f 90/100/90 86/104/86 88/120/88
f 86/104/86 87/118/87 88/120/88
vt 0.380425 0.040795
vt 0.401544 0.040800
vt 0.380378 0.209757
f 76/134/76 81/135/81 97/136/97
vt 0.401538 0.060225
f 81/135/81 75/137/75 97/136/97
vt 0.401544 0.209756
f 75/137/75 96/138/96 97/136/97
vt 0.382420 0.211873
f 97/136/97 96/138/96 98/139/98
vt 0.399504 0.211863
f 98/139/98 96/138/96 95/140/95
vt 0.401981 0.215575
vt 0.404935 0.215470
vt 0.402179 0.293562
f 93/141/93 94/142/94 102/143/102
vt 0.405165 0.293552
f 102/143/102 94/142/94 101/144/101
vt 0.402650 0.210678
f 94/142/94 93/141/93 96/145/96
f 96/145/96 93/141/93 95/140/95
vt 0.379403 0.210899
vt 0.377030 0.215533
f 97/146/97 98/139/98 99/147/99
vt 0.379994 0.215646
f 99/147/99 98/139/98 100/148/100
vt 0.377009 0.293551
vt 0.379995 0.293551
f 104/149/104 99/147/99 103/150/103
f 103/150/103 99/147/99 100/148/100
vt 0.405277 0.212396
vt 0.405271 0.060224
f 94/151/94 96/138/96 74/152/74
f 74/152/74 96/138/96 75/137/75
f 95/140/95 93/141/93 98/139/98
f 98/139/98 93/141/93 100/148/100
vt 0.376692 0.040794
f 76/134/76 97/136/97 77/153/77
vt 0.376645 0.212396
f 77/153/77 97/136/97 99/154/99
vt 0.483230 0.060221
vt 0.483236 0.212394
f 63/155/63 101/156/101 74/152/74
f 74/152/74 101/156/101 94/151/94
f 103/150/103 100/148/100 102/143/102
f 102/143/102 100/148/100 93/141/93
vt 0.298686 0.212373
f 99/154/99 104/157/104 77/153/77
vt 0.298734 0.040773
f 77/153/77 104/157/104 64/158/64
vt 0.262748 0.293349
f 67/88/67 66/105/66 115/159/115
vt 0.289632 0.293031
f 66/105/66 114/160/114 115/159/115
vt 0.265507 0.294298
f 115/159/115 114/160/114 116/161/116
vt 0.286891 0.294059
f 114/160/114 113/162/113 116/161/116
vt 0.290827 0.371963
vt 0.287864 0.371894
f 105/163/105 106/164/106 114/160/114
f 114/160/114 106/164/106 113/162/113
f 106/164/106 105/163/105 108/131/108
vt 0.288440 0.376629
f 108/131/108 105/163/105 107/165/107
vt 0.265755 0.371977
f 116/161/116 109/166/109 115/159/115
vt 0.262802 0.372074
f 115/159/115 109/166/109 110/167/110
vt 0.265120 0.376876
f 110/167/110 109/166/109 111/168/111
f 111/168/111 109/166/109 112/130/112
f 106/164/106 108/131/108 109/166/109
f 109/166/109 108/131/108 112/130/112
vt 0.291168 0.375146
vt 0.291132 0.527400
f 105/169/105 85/170/85 107/129/107
f 107/129/107 85/170/85 84/128/84
f 113/162/113 106/164/106 116/161/116
f 116/161/116 106/164/106 109/166/109
vt 0.369167 0.375167
f 105/169/105 114/171/114 85/170/85
vt 0.369129 0.527420
f 85/170/85 114/171/114 66/172/66
vt 0.184514 0.375162
vt 0.262511 0.375154
vt 0.184537 0.546847
f 115/173/115 110/174/110 67/175/67
vt 0.262536 0.546836
f 67/175/67 110/174/110 91/176/91
f 110/174/110 111/126/111 91/176/91
f 91/176/91 111/126/111 92/125/92
vt 0.377885 0.295658
f 64/106/64 104/177/104 63/107/63
vt 0.404286 0.295678
f 63/107/63 104/177/104 101/178/101
f 104/177/104 103/150/103 101/178/101
f 103/150/103 102/143/102 101/178/101
vt 0.569934 0.399829
vt 0.412891 0.399856
vt 0.569930 0.374451
f 117/179/117 118/180/118 119/181/119
vt 0.412886 0.374479
f 119/181/119 118/180/118 120/182/120
vt 0.569903 0.220172
f 119/181/119 120/182/120 121/183/121
vt 0.412859 0.220200
f 121/183/121 120/182/120 122/184/122
vt 0.569961 0.554108
vt 0.412917 0.554135
f 123/185/123 124/186/124 117/179/117
f 117/179/117 124/186/124 118/180/118
# 194 faces, 186 coords texture

# End of File
