# Blender v2.79 (sub 0) OBJ File: ''
# www.blender.org
mtllib dresser.mtl
o base1_low_Untitled.003
v -0.051808 -0.000000 0.191601
v -0.041387 -0.000000 0.191601
v -0.054597 0.016000 0.194390
v -0.038598 0.016000 0.194390
v -0.054597 0.016000 0.178390
v -0.038598 0.016000 0.178390
v -0.051808 -0.000000 0.181179
v -0.041387 -0.000000 0.181179
vt 0.134188 0.867376
vt 0.146221 0.867378
vt 0.130965 0.886129
vt 0.149439 0.886132
vt 0.113550 0.879962
vt 0.099191 0.868338
vt 0.122846 0.863360
vt 0.113494 0.855789
vt 0.134190 0.855344
vt 0.146223 0.855346
vt 0.157565 0.863366
vt 0.166855 0.879971
vn 0.0000 -0.1717 0.9851
vn 0.0000 -0.1717 -0.9851
vn 0.0000 -1.0000 -0.0000
vn 0.9851 -0.1717 -0.0000
vn -0.9851 -0.1717 -0.0000
usemtl lambert1
s 1
f 1/1/1 2/2/1 3/3/1
f 3/3/1 2/2/1 4/4/1
f 5/5/2 6/6/2 7/7/2
f 7/7/2 6/6/2 8/8/2
f 7/9/3 8/10/3 1/1/3
f 1/1/3 8/10/3 2/2/3
f 2/2/4 8/11/4 4/4/4
f 4/4/4 8/11/4 6/12/4
f 7/7/5 1/1/5 5/5/5
f 5/5/5 1/1/5 3/3/5
o base2_low_Untitled.011
v -0.051808 0.000000 -0.181179
v -0.041387 0.000000 -0.181179
v -0.054597 0.016000 -0.178390
v -0.038598 0.016000 -0.178390
v -0.054597 0.016000 -0.194390
v -0.038598 0.016000 -0.194390
v -0.051808 0.000000 -0.191601
v -0.041387 0.000000 -0.191601
vt 0.408208 0.837927
vt 0.420241 0.837930
vt 0.404983 0.856679
vt 0.423458 0.856683
vt 0.387569 0.850512
vt 0.373211 0.838888
vt 0.396865 0.833910
vt 0.387513 0.826339
vt 0.408210 0.825895
vt 0.420243 0.825897
vt 0.431585 0.833917
vt 0.440874 0.850523
vn 0.0000 -0.1717 0.9851
vn 0.0000 -0.1717 -0.9851
vn 0.0000 -1.0000 -0.0000
vn 0.9851 -0.1717 -0.0000
vn -0.9851 -0.1717 -0.0000
usemtl lambert1
s 1
f 9/13/6 10/14/6 11/15/6
f 11/15/6 10/14/6 12/16/6
f 13/17/7 14/18/7 15/19/7
f 15/19/7 14/18/7 16/20/7
f 15/21/8 16/22/8 9/13/8
f 9/13/8 16/22/8 10/14/8
f 10/14/9 16/23/9 12/16/9
f 12/16/9 16/23/9 14/24/9
f 15/19/10 9/13/10 13/17/10
f 13/17/10 9/13/10 11/15/10
o base3_low_Untitled.012
v 0.041387 0.000000 -0.181179
v 0.051808 0.000000 -0.181179
v 0.038598 0.016000 -0.178390
v 0.054597 0.016000 -0.178390
v 0.038598 0.016000 -0.194390
v 0.054597 0.016000 -0.194390
v 0.041387 0.000000 -0.191601
v 0.051808 0.000000 -0.191601
vt 0.050622 0.867388
vt 0.062655 0.867390
vt 0.047398 0.886140
vt 0.065872 0.886143
vt 0.029984 0.879973
vt 0.015625 0.868349
vt 0.039280 0.863371
vt 0.029927 0.855800
vt 0.050625 0.855355
vt 0.062657 0.855357
vt 0.073999 0.863377
vt 0.083289 0.879982
vn 0.0000 -0.1717 0.9851
vn 0.0000 -0.1717 -0.9851
vn 0.0000 -1.0000 -0.0000
vn 0.9851 -0.1717 -0.0000
vn -0.9851 -0.1717 -0.0000
usemtl lambert1
s 1
f 17/25/11 18/26/11 19/27/11
f 19/27/11 18/26/11 20/28/11
f 21/29/12 22/30/12 23/31/12
f 23/31/12 22/30/12 24/32/12
f 23/33/13 24/34/13 17/25/13
f 17/25/13 24/34/13 18/26/13
f 18/26/14 24/35/14 20/28/14
f 20/28/14 24/35/14 22/36/14
f 23/31/15 17/25/15 21/29/15
f 21/29/15 17/25/15 19/27/15
o base4_low_Untitled.004
v 0.041387 -0.000000 0.191601
v 0.051808 -0.000000 0.191601
v 0.038598 0.016000 0.194390
v 0.054597 0.016000 0.194390
v 0.038598 0.016000 0.178390
v 0.054597 0.016000 0.178390
v 0.041387 -0.000000 0.181179
v 0.051808 -0.000000 0.181179
vt 0.324642 0.837916
vt 0.336674 0.837919
vt 0.321416 0.856667
vt 0.339890 0.856672
vt 0.304002 0.850499
vt 0.289644 0.838874
vt 0.313300 0.833898
vt 0.303948 0.826326
vt 0.324645 0.825883
vt 0.336677 0.825886
vt 0.348019 0.833907
vt 0.357307 0.850513
vn 0.0000 -0.1717 0.9851
vn 0.0000 -0.1717 -0.9851
vn 0.0000 -1.0000 -0.0000
vn 0.9851 -0.1717 -0.0000
vn -0.9851 -0.1717 -0.0000
usemtl lambert1
s 1
f 25/37/16 26/38/16 27/39/16
f 27/39/16 26/38/16 28/40/16
f 29/41/17 30/42/17 31/43/17
f 31/43/17 30/42/17 32/44/17
f 31/45/18 32/46/18 25/37/18
f 25/37/18 32/46/18 26/38/18
f 26/38/19 32/47/19 28/40/19
f 28/40/19 32/47/19 30/48/19
f 31/43/20 25/37/20 29/41/20
f 29/41/20 25/37/20 27/39/20
o handle6_low_Untitled.016
v 0.060786 0.053489 -0.081733
v 0.066435 0.053489 -0.081733
v 0.060786 0.059138 -0.081733
v 0.066435 0.059138 -0.081733
v 0.060786 0.059138 -0.115626
v 0.066435 0.059138 -0.115626
v 0.066435 0.053489 -0.115626
v 0.060786 0.053489 -0.115626
vt 0.879879 0.756579
vt 0.879879 0.750056
vt 0.886402 0.756578
vt 0.886401 0.750055
vt 0.925537 0.756574
vt 0.925536 0.750052
vt 0.932059 0.756574
vt 0.932059 0.750051
vt 0.886400 0.743533
vt 0.886400 0.737010
vt 0.925536 0.743529
vt 0.925535 0.737007
vn 0.0000 0.0000 1.0000
vn 0.0000 0.0000 -1.0000
vn 0.0000 -1.0000 0.0000
vn 0.0000 1.0000 0.0000
vn 1.0000 0.0000 0.0000
usemtl lambert1
s 1
f 33/49/21 34/50/21 35/51/21
f 35/51/21 34/50/21 36/52/21
f 37/53/22 38/54/22 40/55/22
f 40/55/22 38/54/22 39/56/22
f 34/57/23 33/58/23 39/59/23
f 39/59/23 33/58/23 40/60/23
f 36/52/24 38/54/24 35/51/24
f 35/51/24 38/54/24 37/53/24
f 34/57/25 39/59/25 36/52/25
f 36/52/25 39/59/25 38/54/25
o handle5_low_Untitled.006
v 0.060786 0.053198 0.115680
v 0.066435 0.053198 0.115680
v 0.060786 0.058847 0.115680
v 0.066435 0.058847 0.115680
v 0.060786 0.058847 0.081787
v 0.066435 0.058847 0.081787
v 0.066435 0.053198 0.081787
v 0.060786 0.053198 0.081787
vt 0.207463 0.848815
vt 0.207462 0.842293
vt 0.213985 0.848815
vt 0.213985 0.842292
vt 0.253120 0.848811
vt 0.253120 0.842288
vt 0.259643 0.848810
vt 0.259642 0.842288
vt 0.213984 0.835770
vt 0.213983 0.829247
vt 0.253119 0.835766
vt 0.253119 0.829243
vn 0.0000 0.0000 1.0000
vn 0.0000 0.0000 -1.0000
vn 0.0000 -1.0000 0.0000
vn 0.0000 1.0000 0.0000
vn 1.0000 0.0000 0.0000
usemtl lambert1
s 1
f 41/61/26 42/62/26 43/63/26
f 43/63/26 42/62/26 44/64/26
f 45/65/27 46/66/27 48/67/27
f 48/67/27 46/66/27 47/68/27
f 42/69/28 41/70/28 47/71/28
f 47/71/28 41/70/28 48/72/28
f 44/64/29 46/66/29 43/63/29
f 43/63/29 46/66/29 45/65/29
f 42/69/30 47/71/30 44/64/30
f 44/64/30 47/71/30 46/66/30
o handle4_low_Untitled.014
v 0.060786 0.119331 -0.081733
v 0.066435 0.119331 -0.081733
v 0.060786 0.124980 -0.081733
v 0.066435 0.124980 -0.081733
v 0.060786 0.124980 -0.115626
v 0.066435 0.124980 -0.115626
v 0.066435 0.119331 -0.115626
v 0.060786 0.119331 -0.115626
vt 0.028670 0.823001
vt 0.028669 0.816478
vt 0.035193 0.823000
vt 0.035192 0.816477
vt 0.074328 0.822996
vt 0.074327 0.816474
vt 0.080850 0.822995
vt 0.080850 0.816473
vt 0.035191 0.809955
vt 0.035191 0.803432
vt 0.074326 0.809951
vt 0.074326 0.803429
vn 0.0000 0.0000 1.0000
vn 0.0000 0.0000 -1.0000
vn 0.0000 -1.0000 0.0000
vn 0.0000 1.0000 0.0000
vn 1.0000 0.0000 0.0000
usemtl lambert1
s 1
f 49/73/31 50/74/31 51/75/31
f 51/75/31 50/74/31 52/76/31
f 53/77/32 54/78/32 56/79/32
f 56/79/32 54/78/32 55/80/32
f 50/81/33 49/82/33 55/83/33
f 55/83/33 49/82/33 56/84/33
f 52/76/34 54/78/34 51/75/34
f 51/75/34 54/78/34 53/77/34
f 50/81/35 55/83/35 52/76/35
f 52/76/35 55/83/35 54/78/35
o handle3_low_Untitled.005
v 0.060786 0.122320 0.115680
v 0.066435 0.122320 0.115680
v 0.060786 0.127969 0.115680
v 0.066435 0.127969 0.115680
v 0.060786 0.127969 0.081787
v 0.066435 0.127969 0.081787
v 0.066435 0.122320 0.081787
v 0.060786 0.122320 0.081787
vt 0.123897 0.822989
vt 0.123896 0.816467
vt 0.130419 0.822989
vt 0.130419 0.816466
vt 0.169554 0.822985
vt 0.169554 0.816462
vt 0.176077 0.822984
vt 0.176076 0.816462
vt 0.130418 0.809944
vt 0.130417 0.803421
vt 0.169553 0.809940
vt 0.169552 0.803417
vn 0.0000 0.0000 1.0000
vn 0.0000 0.0000 -1.0000
vn 0.0000 -1.0000 -0.0000
vn 0.0000 1.0000 0.0000
vn 1.0000 0.0000 0.0000
usemtl lambert1
s 1
f 57/85/36 58/86/36 59/87/36
f 59/87/36 58/86/36 60/88/36
f 61/89/37 62/90/37 64/91/37
f 64/91/37 62/90/37 63/92/37
f 58/93/38 57/94/38 63/95/38
f 63/95/38 57/94/38 64/96/38
f 60/88/39 62/90/39 59/87/39
f 59/87/39 62/90/39 61/89/39
f 58/93/40 63/95/40 60/88/40
f 60/88/40 63/95/40 62/90/40
o handle2_low_Untitled.007
v 0.060786 0.191999 -0.081733
v 0.066435 0.191999 -0.081733
v 0.060786 0.197648 -0.081733
v 0.066435 0.197648 -0.081733
v 0.060786 0.197648 -0.115626
v 0.066435 0.197648 -0.115626
v 0.066435 0.191999 -0.115626
v 0.060786 0.191999 -0.115626
vt 0.879879 0.698132
vt 0.879879 0.691609
vt 0.886402 0.698131
vt 0.886401 0.691609
vt 0.925537 0.698127
vt 0.925536 0.691605
vt 0.932059 0.698127
vt 0.932059 0.691604
vt 0.886400 0.685086
vt 0.886400 0.678564
vt 0.925536 0.685082
vt 0.925535 0.678560
vn 0.0000 0.0000 1.0000
vn 0.0000 0.0000 -1.0000
vn 0.0000 -1.0000 0.0000
vn 0.0000 1.0000 0.0000
vn 1.0000 0.0000 0.0000
usemtl lambert1
s 1
f 65/97/41 66/98/41 67/99/41
f 67/99/41 66/98/41 68/100/41
f 69/101/42 70/102/42 72/103/42
f 72/103/42 70/102/42 71/104/42
f 66/105/43 65/106/43 71/107/43
f 71/107/43 65/106/43 72/108/43
f 68/100/44 70/102/44 67/99/44
f 67/99/44 70/102/44 69/101/44
f 66/105/45 71/107/45 68/100/45
f 68/100/45 71/107/45 70/102/45
o handle1_low_Untitled.009
v 0.060786 0.192069 0.115680
v 0.066435 0.192069 0.115680
v 0.060786 0.197718 0.115680
v 0.066435 0.197718 0.115680
v 0.060786 0.197718 0.081787
v 0.066435 0.197718 0.081787
v 0.066435 0.192069 0.081787
v 0.060786 0.192069 0.081787
vt 0.879879 0.815026
vt 0.879879 0.808503
vt 0.886402 0.815025
vt 0.886401 0.808502
vt 0.925537 0.815021
vt 0.925536 0.808499
vt 0.932059 0.815020
vt 0.932059 0.808498
vt 0.886400 0.801980
vt 0.886400 0.795457
vt 0.925536 0.801976
vt 0.925535 0.795453
vn 0.0000 0.0000 1.0000
vn 0.0000 0.0000 -1.0000
vn 0.0000 -1.0000 0.0000
vn 0.0000 1.0000 0.0000
vn 1.0000 0.0000 0.0000
usemtl lambert1
s 1
f 73/109/46 74/110/46 75/111/46
f 75/111/46 74/110/46 76/112/46
f 77/113/47 78/114/47 80/115/47
f 80/115/47 78/114/47 79/116/47
f 74/117/48 73/118/48 79/119/48
f 79/119/48 73/118/48 80/120/48
f 76/112/49 78/114/49 75/111/49
f 75/111/49 78/114/49 77/113/49
f 74/117/50 79/119/50 76/112/50
f 76/112/50 79/119/50 78/114/50
o drawer6_low_Untitled.002
v 0.056732 0.023914 -0.002227
v 0.061471 0.023914 -0.002227
v 0.056732 0.087981 -0.002227
v 0.061471 0.087981 -0.002227
v 0.056732 0.087981 -0.195132
v 0.061471 0.087981 -0.195132
v 0.056732 0.023914 -0.195132
v 0.061471 0.023914 -0.195132
vt 0.596468 0.663040
vt 0.596468 0.657569
vt 0.670443 0.663033
vt 0.670443 0.657562
vt 0.675915 0.663033
vt 0.670464 0.885772
vt 0.675935 0.885771
vt 0.670465 0.891243
vt 0.596489 0.885779
vt 0.596490 0.891250
vt 0.590997 0.663040
vt 0.591018 0.885779
vt 0.517043 0.885786
vt 0.517022 0.663047
vn 0.0000 -0.0000 1.0000
vn 0.0000 1.0000 0.0000
vn 0.0000 0.0000 -1.0000
vn 0.0000 -1.0000 -0.0000
vn 1.0000 0.0000 0.0000
usemtl lambert1
s 1
f 81/121/51 82/122/51 83/123/51
f 83/123/51 82/122/51 84/124/51
f 83/123/52 84/125/52 85/126/52
f 85/126/52 84/125/52 86/127/52
f 85/126/53 86/128/53 87/129/53
f 87/129/53 86/128/53 88/130/53
f 82/131/54 81/121/54 88/132/54
f 88/132/54 81/121/54 87/129/54
f 86/133/55 84/134/55 88/132/55
f 88/132/55 84/134/55 82/131/55
o drawer5_low_Untitled.001
v 0.056732 0.023914 0.195152
v 0.061471 0.023914 0.195152
v 0.056732 0.087981 0.195152
v 0.061471 0.087981 0.195152
v 0.056732 0.087981 0.002247
v 0.061471 0.087981 0.002247
v 0.056732 0.023914 0.002247
v 0.061471 0.023914 0.002247
vt 0.862749 0.427768
vt 0.862750 0.422297
vt 0.936724 0.427780
vt 0.936725 0.422308
vt 0.942195 0.427780
vt 0.936689 0.650518
vt 0.942160 0.650519
vt 0.936688 0.655989
vt 0.862714 0.650507
vt 0.862713 0.655978
vt 0.857278 0.427767
vt 0.857243 0.650506
vt 0.783268 0.650494
vt 0.783303 0.427756
vn 0.0000 -0.0000 1.0000
vn 0.0000 1.0000 0.0000
vn 0.0000 0.0000 -1.0000
vn 0.0000 -1.0000 -0.0000
vn 1.0000 0.0000 0.0000
usemtl lambert1
s 1
f 89/135/56 90/136/56 91/137/56
f 91/137/56 90/136/56 92/138/56
f 91/137/57 92/139/57 93/140/57
f 93/140/57 92/139/57 94/141/57
f 93/140/58 94/142/58 95/143/58
f 95/143/58 94/142/58 96/144/58
f 90/145/59 89/135/59 96/146/59
f 96/146/59 89/135/59 95/143/59
f 94/147/60 92/148/60 96/146/60
f 96/146/60 92/148/60 90/145/60
o drawer4_low_Untitled.015
v 0.056732 0.090723 -0.002227
v 0.061471 0.090723 -0.002227
v 0.056732 0.159429 -0.002227
v 0.061471 0.159429 -0.002227
v 0.056732 0.159429 -0.195132
v 0.061471 0.159429 -0.195132
v 0.056732 0.090723 -0.195132
v 0.061471 0.090723 -0.195132
vt 0.868096 0.178037
vt 0.868097 0.172566
vt 0.947429 0.178046
vt 0.947429 0.172574
vt 0.952900 0.178046
vt 0.947404 0.400784
vt 0.952875 0.400785
vt 0.947403 0.406255
vt 0.868072 0.400776
vt 0.868071 0.406247
vt 0.862625 0.178036
vt 0.862600 0.400775
vt 0.783268 0.400766
vt 0.783293 0.178027
vn 0.0000 -0.0000 1.0000
vn 0.0000 1.0000 0.0000
vn 0.0000 0.0000 -1.0000
vn 0.0000 -1.0000 -0.0000
vn 1.0000 0.0000 0.0000
usemtl lambert1
s 1
f 97/149/61 98/150/61 99/151/61
f 99/151/61 98/150/61 100/152/61
f 99/151/62 100/153/62 101/154/62
f 101/154/62 100/153/62 102/155/62
f 101/154/63 102/156/63 103/157/63
f 103/157/63 102/156/63 104/158/63
f 98/159/64 97/149/64 104/160/64
f 104/160/64 97/149/64 103/157/64
f 102/161/65 100/162/65 104/160/65
f 104/160/65 100/162/65 98/159/65
o drawer3_low_Untitled
v 0.056732 0.090723 0.195152
v 0.061471 0.090723 0.195152
v 0.056732 0.159429 0.195152
v 0.061471 0.159429 0.195152
v 0.056732 0.159429 0.002247
v 0.061471 0.159429 0.002247
v 0.056732 0.090723 0.002247
v 0.061471 0.090723 0.002247
vt 0.021106 0.696057
vt 0.015634 0.696058
vt 0.021096 0.616725
vt 0.015625 0.616725
vt 0.243834 0.611227
vt 0.243835 0.616698
vt 0.021096 0.611254
vt 0.249306 0.616698
vt 0.243844 0.696031
vt 0.249316 0.696030
vt 0.243845 0.701502
vt 0.021106 0.701528
vt 0.021116 0.780861
vt 0.243854 0.780834
vn 0.0000 -0.0000 1.0000
vn 0.0000 1.0000 0.0000
vn 0.0000 0.0000 -1.0000
vn 0.0000 -1.0000 -0.0000
vn 1.0000 0.0000 0.0000
usemtl lambert1
s 1
f 105/163/66 106/164/66 107/165/66
f 107/165/66 106/164/66 108/166/66
f 110/167/67 109/168/67 108/169/67
f 108/169/67 109/168/67 107/165/67
f 109/168/68 110/170/68 111/171/68
f 111/171/68 110/170/68 112/172/68
f 111/171/69 112/173/69 105/163/69
f 105/163/69 112/173/69 106/174/69
f 106/174/70 112/173/70 108/175/70
f 108/175/70 112/173/70 110/176/70
o drawer2_low_Untitled.013
v 0.056732 0.162790 -0.002227
v 0.061471 0.162790 -0.002227
v 0.056732 0.226857 -0.002227
v 0.061471 0.226857 -0.002227
v 0.056732 0.226857 -0.195132
v 0.061471 0.226857 -0.195132
v 0.056732 0.162790 -0.195132
v 0.061471 0.162790 -0.195132
vt 0.271795 0.730378
vt 0.266324 0.730377
vt 0.271805 0.656403
vt 0.266334 0.656402
vt 0.494545 0.650963
vt 0.494544 0.656434
vt 0.271806 0.650932
vt 0.500015 0.656435
vt 0.494534 0.730409
vt 0.500005 0.730410
vt 0.271794 0.735849
vt 0.494533 0.735881
vt 0.271784 0.809824
vt 0.494522 0.809856
vn 0.0000 -0.0000 1.0000
vn 0.0000 1.0000 0.0000
vn 0.0000 0.0000 -1.0000
vn 0.0000 -1.0000 -0.0000
vn 1.0000 0.0000 0.0000
usemtl lambert1
s 1
f 113/177/71 114/178/71 115/179/71
f 115/179/71 114/178/71 116/180/71
f 118/181/72 117/182/72 116/183/72
f 116/183/72 117/182/72 115/179/72
f 117/182/73 118/184/73 119/185/73
f 119/185/73 118/184/73 120/186/73
f 113/177/74 119/185/74 114/187/74
f 114/187/74 119/185/74 120/188/74
f 114/187/75 120/188/75 116/189/75
f 116/189/75 120/188/75 118/190/75
o drawer1_low_Untitled.010
v 0.056732 0.162790 0.195152
v 0.061471 0.162790 0.195152
v 0.056732 0.226857 0.195152
v 0.061471 0.226857 0.195152
v 0.056732 0.226857 0.002247
v 0.061471 0.226857 0.002247
v 0.056732 0.162790 0.002247
v 0.061471 0.162790 0.002247
vt 0.771390 0.672022
vt 0.771390 0.666551
vt 0.845365 0.672027
vt 0.845365 0.666556
vt 0.850821 0.894766
vt 0.845349 0.894766
vt 0.850836 0.672027
vt 0.845349 0.900237
vt 0.771374 0.894761
vt 0.771374 0.900232
vt 0.765903 0.894760
vt 0.765918 0.672022
vt 0.691943 0.672016
vt 0.691928 0.894755
vn 0.0000 0.0000 1.0000
vn 0.0000 1.0000 0.0000
vn 0.0000 0.0000 -1.0000
vn 0.0000 -1.0000 -0.0000
vn 1.0000 0.0000 0.0000
usemtl lambert1
s 1
f 121/191/76 122/192/76 123/193/76
f 123/193/76 122/192/76 124/194/76
f 126/195/77 125/196/77 124/197/77
f 124/197/77 125/196/77 123/193/77
f 125/196/78 126/198/78 127/199/78
f 127/199/78 126/198/78 128/200/78
f 127/199/79 128/201/79 121/191/79
f 121/191/79 128/201/79 122/202/79
f 122/202/80 128/201/80 124/203/80
f 124/203/80 128/201/80 126/204/80
o dresser_low_Untitled.008
v -0.060946 0.015570 0.203074
v 0.060946 0.015570 0.203074
v -0.060946 0.015570 -0.203074
v 0.060946 0.015570 -0.203074
v 0.060946 0.021047 -0.197145
v 0.060946 0.021047 0.197145
v 0.060946 0.229184 -0.197145
v 0.060946 0.229184 0.197145
v 0.055260 0.021047 -0.197145
v 0.055260 0.021047 0.197145
v 0.055260 0.229184 -0.197145
v 0.055260 0.229184 0.197145
v -0.060946 0.228954 0.203074
v -0.060946 0.232990 0.201402
v -0.060946 0.234662 0.197367
v 0.060946 0.234662 0.197367
v 0.060946 0.232990 0.201402
v 0.060946 0.228954 0.203074
v -0.060946 0.234662 -0.197367
v -0.060946 0.232990 -0.201402
v -0.060946 0.228955 -0.203074
v 0.060946 0.228955 -0.203074
v 0.060946 0.232990 -0.201402
v 0.060946 0.234662 -0.197367
vt 0.015625 0.156367
vt 0.015648 0.015625
vt 0.262010 0.156408
vt 0.262034 0.015666
vt 0.272098 0.156410
vt 0.272121 0.015668
vt 0.727879 0.156486
vt 0.727902 0.015744
vt 0.984375 0.015787
vt 0.984352 0.156529
vt 0.737990 0.015746
vt 0.737966 0.156488
vt 0.484609 0.454474
vt 0.484586 0.595216
vt 0.015648 0.454395
vt 0.015625 0.595138
vt 0.025702 0.184254
vt 0.486199 0.184228
vt 0.025831 0.426659
vt 0.486176 0.426670
vt 0.022607 0.178961
vt 0.015625 0.172504
vt 0.489360 0.178956
vt 0.496343 0.172499
vt 0.496205 0.431670
vt 0.494256 0.436408
vt 0.489266 0.431965
vt 0.022673 0.431933
vt 0.267054 0.156409
vt 0.267078 0.015667
vt 0.732922 0.156487
vt 0.732946 0.015745
vt 0.015735 0.431638
vt 0.017683 0.436376
vt 0.766110 0.172544
vt 0.766144 0.641505
vt 0.519725 0.172562
vt 0.515065 0.174492
vt 0.513135 0.179152
vt 0.513168 0.634934
vt 0.515099 0.639593
vt 0.519759 0.641523
vt 0.489527 0.438378
vt 0.022411 0.438346
vn 0.0000 -0.0000 1.0000
vn 0.0000 0.0077 1.0000
vn -0.0001 0.0077 1.0000
vn 0.0001 1.0000 0.0042
vn 0.0000 1.0000 0.0042
vn 0.0000 1.0000 -0.0042
vn 0.0000 0.0000 -1.0000
vn 0.0000 0.0077 -1.0000
vn 0.0000 -1.0000 -0.0000
vn 1.0000 0.0000 0.0000
vn 0.0000 1.0000 0.0000
vn 0.0000 0.7071 0.7071
vn 0.0000 0.7071 -0.7071
vn -1.0000 0.0000 0.0000
usemtl lambert1
s 1
f 129/205/81 130/206/81 141/207/82
f 141/207/82 130/206/81 146/208/83
f 143/209/84 144/210/85 147/211/86
f 147/211/86 144/210/85 152/212/86
f 132/213/87 131/214/87 150/215/88
f 150/215/88 131/214/87 149/216/88
f 130/217/89 129/218/89 132/219/89
f 132/219/89 129/218/89 131/220/89
f 138/221/90 137/222/90 140/223/90
f 140/223/90 137/222/90 139/224/90
f 134/225/90 130/226/90 133/227/90
f 133/227/90 130/226/90 132/228/90
f 132/228/90 150/229/90 133/227/90
f 151/230/90 135/231/90 150/229/90
f 135/231/90 133/227/90 150/229/90
f 138/221/91 134/225/91 137/222/91
f 137/222/91 134/225/91 133/227/91
f 137/222/81 133/227/81 139/224/81
f 139/224/81 133/227/81 135/231/81
f 136/232/89 140/223/89 135/231/89
f 135/231/89 140/223/89 139/224/89
f 134/225/87 138/221/87 136/232/87
f 136/232/87 138/221/87 140/223/87
f 143/209/84 142/233/92 144/210/85
f 144/210/85 142/233/92 145/234/92
f 142/233/92 141/207/82 145/234/92
f 145/234/92 141/207/82 146/208/83
f 149/216/88 148/235/93 150/215/88
f 150/215/88 148/235/93 151/236/93
f 148/235/93 147/211/86 151/236/93
f 151/236/93 147/211/86 152/212/86
f 130/226/90 134/225/90 146/237/90
f 145/238/90 146/237/90 136/232/90
f 136/232/90 146/237/90 134/225/90
f 131/239/94 129/240/94 149/241/94
f 149/241/94 129/240/94 148/242/94
f 148/242/94 129/240/94 147/243/94
f 147/243/94 129/240/94 143/244/94
f 143/244/94 129/240/94 142/245/94
f 129/240/94 141/246/94 142/245/94
f 151/230/90 152/247/90 135/231/90
f 145/238/90 136/232/90 144/248/90
f 152/247/90 144/248/90 135/231/90
f 135/231/90 144/248/90 136/232/90
