####
#
# OBJ File Generated by Meshlab
#
####
# Object storage.obj
#
# Vertices: 112
# Faces: 96
#
####
mtllib ./storage.obj.mtl

vn -1.335296 -3.005858 3.768462
v -0.845139 0.000000 0.231612 1.000000 1.000000 1.000000
vn 0.000000 -4.341144 3.768466
v -0.261263 0.000000 0.231612 0.952941 0.956863 0.952941
vn 0.000000 -4.676430 4.710582
v 0.322614 0.000000 0.231612 0.058824 0.164706 0.086275
vn 2.670573 -1.335286 2.826349
v 0.906491 0.000000 0.231612 1.000000 1.000000 1.000000
vn -2.000000 -1.000000 -1.000000
v -0.845139 -0.000000 -0.674989 1.000000 1.000000 1.000000
vn 0.000000 -3.000000 -3.000000
v -0.261263 -0.000000 -0.674989 1.000000 1.000000 1.000000
vn 0.000000 -3.000000 -3.000000
v 0.322614 -0.000000 -0.674989 1.000000 1.000000 1.000000
vn 1.000000 -2.000000 -2.000000
v 0.906491 -0.000000 -0.674989 1.000000 1.000000 1.000000
vn -2.670591 2.335286 2.826342
v -0.845139 1.500000 0.231612 0.803922 0.823529 0.807843
vn 0.000000 4.341143 3.768466
v -0.261263 1.500000 0.231612 1.000000 1.000000 1.000000
vn 0.000000 4.341144 3.768466
v 0.322614 1.500000 0.231612 0.933333 0.941176 0.933333
vn 1.335286 2.341144 4.710582
v 0.906491 1.500000 0.231612 1.000000 1.000000 1.000000
vn -1.000000 1.000000 -2.000000
v -0.845139 1.500000 -0.674989 1.000000 1.000000 1.000000
vn 0.000000 3.000000 -3.000000
v -0.261263 1.500000 -0.674989 1.000000 1.000000 1.000000
vn 0.000000 3.000000 -3.000000
v 0.322614 1.500000 -0.674989 0.996078 0.996078 0.996078
vn 2.000000 2.000000 -1.000000
v 0.906491 1.500000 -0.674989 1.000000 1.000000 1.000000
vn -4.005887 0.000000 2.826339
v -0.845139 0.500000 0.231612 1.000000 1.000000 1.000000
vn -0.999247 -1.998494 4.116411
v -0.261263 0.500000 0.242432 0.074510 0.266667 0.141176
vn -0.999247 -1.998494 4.116412
v 0.322614 0.500000 0.242432 0.054902 0.133333 0.070588
vn 4.676432 0.000000 4.710581
v 0.906491 0.500000 0.231612 1.000000 1.000000 1.000000
vn 3.000000 0.000000 -3.000000
v 0.906491 0.500000 -0.674989 1.000000 1.000000 1.000000
vn 0.000000 0.000000 -6.000000
v 0.322614 0.500000 -0.674989 1.000000 1.000000 1.000000
vn 0.000000 0.000000 -6.000000
v -0.261263 0.500000 -0.674989 1.000000 1.000000 1.000000
vn -3.000000 0.000000 -3.000000
v -0.845139 0.500000 -0.674989 1.000000 1.000000 1.000000
vn -4.676478 0.000000 4.710565
v -0.845139 1.000000 0.231612 1.000000 1.000000 1.000000
vn -1.998494 0.999247 5.116410
v -0.261263 1.000000 0.242432 0.098039 0.219608 0.133333
vn -1.998494 0.999247 5.116412
v 0.322614 1.000000 0.242432 0.054902 0.145098 0.074510
vn 4.005859 0.000000 2.826349
v 0.906491 1.000000 0.231612 0.843137 0.858824 0.847059
vn 3.000000 0.000000 -3.000000
v 0.906491 1.000000 -0.674989 1.000000 1.000000 1.000000
vn 0.000000 0.000000 -6.000000
v 0.322614 1.000000 -0.674989 1.000000 1.000000 1.000000
vn 0.000000 0.000000 -6.000000
v -0.261263 1.000000 -0.674989 1.000000 1.000000 1.000000
vn -3.000000 0.000000 -3.000000
v -0.845139 1.000000 -0.674989 1.000000 1.000000 1.000000
vn -0.670591 -0.335286 4.826342
v -0.814737 0.030403 0.242432 0.058824 0.168627 0.090196
vn -1.998494 -0.006611 4.942758
v -0.261263 0.030403 0.242432 0.058824 0.168627 0.090196
vn -1.998494 -0.006611 4.942760
v 0.322614 0.030403 0.242432 0.058824 0.164706 0.082353
vn 0.335286 -0.670572 3.826349
v 0.876088 0.030403 0.242432 0.058824 0.168627 0.090196
vn 1.005859 0.000000 6.826349
v 0.876088 0.500000 0.242432 0.058824 0.168627 0.090196
vn 1.005859 0.000000 4.826349
v 0.876088 1.000000 0.242432 0.058824 0.164706 0.086275
vn 0.670573 0.335286 4.826349
v 0.876088 1.469597 0.242432 0.443137 0.505882 0.462745
vn -0.999247 -0.992636 3.942759
v 0.322614 1.469597 0.242432 0.133333 0.227451 0.152941
vn -0.999247 -0.992636 3.942758
v -0.261263 1.469597 0.242432 0.380392 0.447059 0.392157
vn -0.335296 0.670572 3.826346
v -0.814737 1.469597 0.242432 0.058824 0.168627 0.090196
vn -1.005887 0.000000 6.826339
v -0.814737 1.000000 0.242432 0.058824 0.168627 0.090196
vn -1.005887 0.000000 4.826339
v -0.814737 0.500000 0.242432 0.058824 0.168627 0.090196
vn -1.998494 0.999247 8.116409
v -0.261263 0.534212 0.242432 0.074510 0.250980 0.133333
vn -0.999247 -1.998494 7.116411
v -0.261263 0.965788 0.242432 0.129412 0.219608 0.152941
vn -1.998494 0.999247 10.116412
v 0.322614 0.534212 0.242432 0.054902 0.133333 0.070588
vn -0.999247 -1.998494 7.116412
v 0.322614 0.965788 0.242432 0.062745 0.184314 0.090196
vn 0.670573 0.000000 5.884233
v 0.876088 0.534212 0.242432 0.058824 0.168627 0.090196
vn 0.670573 0.000000 8.884233
v 0.876088 0.965788 0.242432 0.062745 0.164706 0.082353
vn -0.670591 0.000000 4.884226
v -0.814737 0.965788 0.242432 0.058824 0.172549 0.094118
vn -0.670591 0.000000 7.884226
v -0.814737 0.534212 0.242432 0.058824 0.168627 0.090196
vn 0.999247 1.998494 3.116412
v -0.784296 1.000000 0.242432 0.062745 0.188235 0.098039
vn 0.999247 1.998494 3.116411
v -0.229149 1.000000 0.242432 0.121569 0.219608 0.145098
vn 0.999247 1.998494 3.116412
v 0.353055 1.000000 0.242432 0.058824 0.152941 0.078431
vn 1.998494 -0.328675 4.000644
v 0.353055 1.469597 0.242432 0.243137 0.329412 0.266667
vn 1.998494 -0.328675 4.000641
v -0.229149 1.469597 0.242432 0.094118 0.200000 0.125490
vn 1.998494 -0.328675 4.000644
v -0.784296 1.469597 0.242432 0.058824 0.176471 0.094118
vn 1.998494 -0.999247 3.116412
v -0.784296 0.965788 0.242432 0.443137 0.505882 0.454902
vn 0.999247 1.998494 2.116412
v -0.784296 0.534212 0.242432 0.062745 0.203922 0.109804
vn 1.998494 -0.999247 3.116410
v -0.229149 0.965788 0.242432 0.137255 0.219608 0.156863
vn 0.999247 1.998494 2.116411
v -0.229149 0.534212 0.242432 0.070588 0.223529 0.113725
vn 1.998494 -0.999247 4.116412
v 0.353055 0.965788 0.242432 0.062745 0.164706 0.082353
vn 0.999247 1.998494 2.116412
v 0.353055 0.534212 0.242432 0.176471 0.266667 0.200000
vn 1.998494 -0.999247 4.116412
v -0.784296 0.500000 0.242432 0.058824 0.180392 0.094118
vn 1.998494 -0.999247 4.116410
v -0.229149 0.500000 0.242432 0.070588 0.235294 0.121569
vn 1.998494 -0.999247 4.116412
v 0.353055 0.500000 0.242432 0.058824 0.168627 0.086275
vn 0.999247 1.327922 3.000643
v -0.784296 0.030403 0.242432 0.058824 0.168627 0.090196
vn 0.999247 1.327922 3.000641
v -0.229149 0.030403 0.242432 0.062745 0.203922 0.109804
vn 0.999247 1.327922 3.000643
v 0.353055 0.030403 0.242432 0.129412 0.223529 0.149020
vn -0.999247 -1.998494 3.116412
v 0.849937 0.500000 0.242432 0.058824 0.172549 0.094118
vn -1.998494 0.328675 4.000644
v 0.849937 0.030403 0.242432 0.121569 0.223529 0.149020
vn -0.999247 -1.998494 3.116412
v 0.849937 0.965788 0.242432 0.062745 0.164706 0.082353
vn -1.998494 0.999247 3.116412
v 0.849937 0.534212 0.242432 0.062745 0.203922 0.109804
vn -1.998494 0.999247 4.116412
v 0.849937 1.000000 0.242432 0.058824 0.164706 0.086275
vn -0.999247 -1.327922 3.000643
v 0.849937 1.469597 0.242432 0.058824 0.168627 0.090196
vn -0.999247 1.998494 2.116411
v -0.291665 0.564615 -0.540477 0.066667 0.211765 0.105882
vn -1.998494 -0.999247 1.116410
v -0.291665 0.935385 -0.540477 0.109804 0.192157 0.129412
vn 0.999247 -1.998494 2.116412
v -0.753893 0.935385 -0.540477 0.086275 0.164706 0.101961
vn 1.998494 0.999247 1.116412
v -0.753893 0.564615 -0.540477 0.070588 0.235294 0.121569
vn -0.999247 1.998494 2.116412
v 0.292211 0.564615 -0.540477 0.070588 0.231373 0.117647
vn -1.998494 -0.999247 1.116412
v 0.292211 0.935385 -0.540477 0.137255 0.219608 0.156863
vn 0.999247 -1.998494 2.116411
v -0.198747 0.935385 -0.540477 0.105882 0.184314 0.121569
vn 1.998494 0.999247 1.116410
v -0.198747 0.564615 -0.540477 0.184314 0.301961 0.219608
vn 1.998494 0.999247 2.116412
v -0.753893 1.030403 -0.540477 0.054902 0.133333 0.070588
vn -0.999247 1.998494 1.116411
v -0.291665 1.030403 -0.540477 0.137255 0.219608 0.156863
vn -1.998494 -0.999247 2.116408
v -0.291665 1.439195 -0.540477 0.137255 0.219608 0.156863
vn 0.999247 -1.998494 1.116410
v -0.753893 1.439195 -0.540477 0.164706 0.305882 0.211765
vn 1.998494 0.999247 2.116410
v -0.198747 1.030403 -0.540477 0.058824 0.152941 0.078431
vn -0.999247 1.998494 1.116412
v 0.292211 1.030403 -0.540477 0.137255 0.219608 0.156863
vn -1.998494 -0.999247 2.116411
v 0.292211 1.439195 -0.540477 0.058824 0.176471 0.094118
vn 0.999247 -1.998494 1.116408
v -0.198747 1.439195 -0.540477 0.137255 0.219608 0.156863
vn 0.999247 -1.998494 1.116410
v 0.383458 1.439195 -0.540477 0.054902 0.133333 0.070588
vn 1.998494 0.999247 2.116412
v 0.383458 1.030403 -0.540477 0.078431 0.278431 0.152941
vn -0.999247 1.998494 1.116412
v 0.819534 1.030403 -0.540477 0.290196 0.443137 0.345098
vn -1.998494 -0.999247 2.116411
v 0.819534 1.439195 -0.540477 0.058824 0.168627 0.090196
vn -0.999247 1.998494 1.116409
v -0.291665 0.060805 -0.540477 0.078431 0.278431 0.152941
vn -1.998494 -0.999247 2.116410
v -0.291665 0.469597 -0.540477 0.070588 0.223529 0.113725
vn 0.999247 -1.998494 1.116412
v -0.753893 0.469597 -0.540477 0.070588 0.243137 0.125490
vn 1.998494 0.999247 2.116411
v -0.753893 0.060805 -0.540477 0.078431 0.278431 0.152941
vn -0.999247 1.998494 1.116410
v 0.292211 0.060805 -0.540477 0.078431 0.278431 0.152941
vn -1.998494 -0.999247 2.116412
v 0.292211 0.469597 -0.540477 0.078431 0.278431 0.152941
vn 0.999247 -1.998494 1.116411
v -0.198747 0.469597 -0.540477 0.070588 0.223529 0.113725
vn 1.998494 0.999247 2.116409
v -0.198747 0.060805 -0.540477 0.078431 0.278431 0.152941
vn 1.998494 0.999247 2.116411
v 0.383458 0.060805 -0.540477 0.062745 0.172549 0.086275
vn -0.999247 1.998494 1.116410
v 0.819534 0.060805 -0.540477 0.078431 0.278431 0.152941
vn -1.998494 -0.999247 2.116412
v 0.819534 0.469597 -0.540477 0.078431 0.278431 0.152941
vn 0.999247 -1.998494 1.116412
v 0.383458 0.469597 -0.540477 0.062745 0.164706 0.082353
vn 1.998494 0.999247 2.116412
v 0.383458 0.564615 -0.540477 0.070588 0.223529 0.113725
vn -0.999247 1.998494 1.116412
v 0.819534 0.564615 -0.540477 0.078431 0.278431 0.152941
vn -1.998494 -0.999247 2.116412
v 0.819534 0.935385 -0.540477 0.062745 0.164706 0.082353
vn 0.999247 -1.998494 1.116412
v 0.383458 0.935385 -0.540477 0.101961 0.176471 0.117647
# 112 vertices, 0 vertices normals


usemtl material_0
vt 0.000000 0.000000
vt 0.000000 0.000000
f 2/1/2 34/1/34 68/1/68 33/2/33 1/2/1
vt 0.000000 0.000000
f 3/1/3 35/1/35 69/1/69 34/3/34 2/3/2
vt 0.000000 0.000000
f 4/1/4 36/1/36 72/1/72 70/4/70 35/3/35 3/1/3
f 20/1/20 37/1/37 36/1/36 4/3/4
f 28/1/28 38/1/38 50/1/50 49/4/49 37/3/37 20/1/20
f 12/1/12 39/1/39 38/1/38 28/3/28
f 11/1/11 40/1/40 56/1/56 76/2/76 39/3/39 12/1/12
f 10/1/10 41/1/41 57/1/57 40/2/40 11/3/11
f 9/1/9 42/1/42 58/1/58 41/4/41 10/3/10
f 25/1/25 43/1/43 42/1/42 9/3/9
f 17/1/17 44/1/44 52/1/52 51/4/51 43/3/43 25/1/25
f 1/1/1 33/1/33 44/1/44 17/4/17
f 46/1/46 78/1/78 77/1/77 45/4/45
f 59/1/59 79/1/79 78/1/78 46/4/46
f 60/1/60 80/1/80 79/1/79 59/4/59
f 45/1/45 77/1/77 80/1/80 60/4/60
f 48/1/48 82/1/82 81/1/81 47/4/47
f 61/1/61 83/1/83 82/1/82 48/4/48
f 62/1/62 84/1/84 83/1/83 61/4/61
f 47/1/47 81/1/81 84/1/84 62/4/62
f 26/1/26 86/1/86 85/1/85 53/4/53
f 41/1/41 87/1/87 86/1/86 26/4/26
f 58/1/58 88/1/88 87/1/87 41/4/41
f 53/1/53 85/1/85 88/1/88 58/4/58
f 27/1/27 90/1/90 89/1/89 54/4/54
f 40/1/40 91/1/91 90/1/90 27/4/27
f 57/1/57 92/1/92 91/1/91 40/4/40
f 54/1/54 89/1/89 92/1/92 57/4/57
f 55/1/55 94/1/94 93/1/93 56/4/56
f 75/1/75 95/1/95 94/1/94 55/4/55
f 76/1/76 96/1/96 95/1/95 75/4/75
f 56/1/56 93/1/93 96/1/96 76/4/76
f 18/1/18 98/1/98 97/1/97 34/4/34
f 65/1/65 99/1/99 98/1/98 18/4/18
f 68/1/68 100/1/100 99/1/99 65/4/65
f 34/1/34 97/1/97 100/1/100 68/4/68
f 19/1/19 102/1/102 101/1/101 35/4/35
f 66/1/66 103/1/103 102/1/102 19/4/19
f 69/1/69 104/1/104 103/1/103 66/4/66
f 35/1/35 101/1/101 104/1/104 69/4/69
f 72/1/72 106/1/106 105/1/105 70/4/70
f 71/1/71 107/1/107 106/1/106 72/4/72
f 67/1/67 108/1/108 107/1/107 71/4/71
f 70/1/70 105/1/105 108/1/108 67/4/67
f 74/1/74 110/1/110 109/1/109 64/4/64
f 73/1/73 111/1/111 110/1/110 74/4/74
f 63/1/63 112/1/112 111/1/111 73/4/73
f 64/1/64 109/1/109 112/1/112 63/4/63
f 5/1/5 6/1/6 2/1/2 1/4/1
f 6/1/6 7/1/7 3/1/3 2/4/2
f 7/1/7 8/1/8 4/1/4 3/4/3
f 10/1/10 14/1/14 13/1/13 9/4/9
f 11/1/11 15/1/15 14/1/14 10/4/10
f 12/1/12 16/1/16 15/1/15 11/4/11
f 68/1/68 65/1/65 44/1/44 33/4/33
f 69/1/69 66/1/66 18/1/18 34/4/34
f 70/1/70 67/1/67 19/1/19 35/4/35
f 78/1/78 79/1/79 80/1/80 77/4/77
f 82/1/82 83/1/83 84/1/84 81/4/81
f 50/1/50 73/1/73 74/1/74 49/4/49
f 53/1/53 58/1/58 42/1/42 43/4/43
f 54/1/54 57/1/57 41/1/41 26/4/26
f 55/1/55 56/1/56 40/1/40 27/4/27
f 8/1/8 21/1/21 20/1/20 4/4/4
f 21/1/21 29/1/29 28/1/28 20/4/20
f 29/1/29 16/1/16 12/1/12 28/4/28
f 7/1/7 22/1/22 21/1/21 8/4/8
f 6/1/6 23/1/23 22/1/22 7/4/7
f 5/1/5 24/1/24 23/1/23 6/4/6
f 22/1/22 30/1/30 29/1/29 21/4/21
f 23/1/23 31/1/31 30/1/30 22/4/22
f 24/1/24 32/1/32 31/1/31 23/4/23
f 30/1/30 15/1/15 16/1/16 29/4/29
f 31/1/31 14/1/14 15/1/15 30/4/30
f 32/1/32 13/1/13 14/1/14 31/4/31
f 1/1/1 17/1/17 24/1/24 5/4/5
f 17/1/17 25/1/25 32/1/32 24/4/24
f 25/1/25 9/1/9 13/1/13 32/3/32
f 26/1/26 53/1/53 43/1/43 51/3/51 59/3/59 46/1/46
f 44/1/44 65/1/65 18/1/18 45/3/45 60/3/60 52/1/52
f 27/1/27 54/1/54 26/1/26 46/3/46 61/3/61 48/1/48
vt 0.000000 0.000000
f 18/1/18 66/1/66 19/1/19 47/5/47 62/5/62 45/1/45
f 38/1/38 75/1/75 55/1/55 27/5/27 48/5/48 63/1/63 73/1/73 50/1/50
f 19/1/19 67/1/67 71/1/71 37/4/37 49/5/49 74/1/74 64/1/64 47/1/47
f 86/1/86 87/1/87 88/1/88 85/4/85
f 90/1/90 91/1/91 92/1/92 89/4/89
f 95/1/95 96/1/96 93/1/93 94/4/94
f 51/1/51 52/1/52 60/1/60 59/4/59
f 46/1/46 45/1/45 62/1/62 61/4/61
f 48/1/48 47/1/47 64/1/64 63/4/63
f 97/1/97 98/1/98 99/1/99 100/4/100
f 101/1/101 102/1/102 103/1/103 104/4/104
f 106/1/106 107/1/107 108/1/108 105/4/105
f 36/1/36 37/1/37 71/1/71 72/4/72
f 112/1/112 109/1/109 110/1/110 111/4/111
f 38/1/38 39/1/39 76/1/76 75/1/75
# 96 faces, 5 coords texture

# End of File
