####
#
# OBJ File Generated by Meshlab
#
####
# Object tub.obj
#
# Vertices: 130
# Faces: 232
#
####
mtllib ./tub.obj.mtl

vn -0.707107 0.000000 0.707107
v 2.269240 0.427913 0.070076 0.800000 0.800000 0.800000
vn -0.904534 -0.301511 0.301511
v 2.939841 0.427913 0.070076 0.800000 0.800000 0.800000
vn -0.577350 0.577350 0.577350
v 2.269240 0.568065 0.070076 0.800000 0.800000 0.800000
vn -0.904534 0.301511 0.301511
v 2.939841 0.568065 0.070076 0.800000 0.800000 0.800000
vn -0.577350 0.577350 -0.577350
v 2.269240 0.568065 -0.070076 0.784314 0.784314 0.784314
vn -0.904534 0.301511 -0.301511
v 2.939841 0.568065 -0.070076 0.800000 0.800000 0.800000
vn -0.707107 0.000000 -0.707107
v 2.269240 0.427913 -0.070076 0.796078 0.796078 0.796078
vn -0.904534 -0.301511 -0.301511
v 2.939841 0.427913 -0.070076 0.800000 0.800000 0.800000
vn 0.000000 0.707107 0.707107
v 2.410682 0.568065 0.070076 0.800000 0.800000 0.800000
vn 0.000000 0.707107 -0.707107
v 2.410682 0.568065 -0.070076 0.780392 0.780392 0.780392
vn 0.301511 -0.301511 -0.904534
v 2.410682 0.427913 -0.070076 0.874510 0.874510 0.874510
vn 0.301511 -0.301511 0.904534
v 2.410682 0.427913 0.070076 0.800000 0.800000 0.800000
vn -0.577350 -0.577350 -0.577350
v 2.269240 0.317603 -0.070076 0.800000 0.800000 0.800000
vn 0.577350 -0.577350 -0.577350
v 2.410682 0.317603 -0.070076 0.847059 0.847059 0.847059
vn 0.577350 -0.577350 0.577350
v 2.410682 0.317603 0.070076 0.800000 0.800000 0.800000
vn -0.577350 -0.577350 0.577350
v 2.269240 0.317603 0.070076 0.800000 0.800000 0.800000
vn -0.577350 -0.577350 0.577350
v 2.939841 0.007151 0.209122 0.901961 0.901961 0.901961
vn -0.577350 0.577350 0.577350
v 2.939841 0.639388 0.209122 0.839216 0.839216 0.839216
vn -0.577350 0.577350 -0.577350
v 2.939841 0.639388 -0.209122 0.749020 0.749020 0.749020
vn -0.577350 -0.577350 -0.577350
v 2.939841 0.007151 -0.209122 0.800000 0.800000 0.800000
vn 0.577350 -0.577350 0.577350
v 2.972504 0.007151 0.209122 0.901961 0.901961 0.901961
vn 0.577350 0.577350 0.577350
v 2.972504 0.639388 0.209122 0.843137 0.843137 0.843137
vn 0.577350 0.577350 -0.577350
v 2.972504 0.639388 -0.209122 0.901961 0.901961 0.901961
vn 0.577350 -0.577350 -0.577350
v 2.972504 0.007151 -0.209122 0.901961 0.901961 0.901961
vn 0.706648 -0.025438 -0.707108
v 1.770875 -1.588680 -0.124329 0.886275 0.886275 0.886275
vn 0.000005 -0.000001 -1.000000
v 1.646627 -1.584208 -0.175827 0.101961 0.776471 0.921569
vn -0.706650 0.025438 -0.707106
v 1.522378 -1.579736 -0.124329 0.101961 0.776471 0.921569
vn -0.999353 0.035974 0.000001
v 1.470913 -1.577884 -0.000000 0.576471 0.894118 0.960784
vn -0.706650 0.025439 0.707106
v 1.522378 -1.579736 0.124328 0.917647 0.976471 0.992157
vn 0.000005 0.000001 1.000000
v 1.646627 -1.584208 0.175827 1.000000 1.000000 1.000000
vn 0.706648 -0.025437 0.707108
v 1.770875 -1.588680 0.124328 0.976471 0.976471 0.976471
vn 0.999353 -0.035974 0.000001
v 1.822340 -1.590532 -0.000000 0.988235 0.988235 0.988235
vn 0.571299 0.610109 -0.548985
v 1.772348 -1.547760 -0.124329 1.000000 1.000000 1.000000
vn 0.022664 0.629855 -0.776382
v 1.648099 -1.543289 -0.175827 0.807843 0.952941 0.980392
vn -0.525959 0.649603 -0.548984
v 1.523851 -1.538817 -0.124329 0.556863 0.890196 0.960784
vn -0.753209 0.657781 0.000001
v 1.472386 -1.536965 -0.000000 0.521569 0.878431 0.956863
vn -0.525959 0.649603 0.548984
v 1.523851 -1.538817 0.124328 0.988235 0.996078 0.996078
vn 0.022664 0.629853 0.776383
v 1.648099 -1.543289 0.175827 1.000000 1.000000 1.000000
vn 0.571299 0.610110 0.548984
v 1.772348 -1.547760 0.124328 0.854902 0.960784 0.984314
vn 0.798551 0.601927 0.000001
v 1.823813 -1.549613 -0.000000 0.925490 0.980392 0.992157
vn 0.035966 0.999353 -0.000000
v 1.648099 -1.543289 -0.000000 1.000000 1.000000 1.000000
vn 0.000000 0.707110 -0.707103
v 2.511801 -0.252096 -0.089207 0.400000 0.400000 0.400000
vn 0.000000 0.000002 -1.000000
v 2.511801 -0.341303 -0.126158 0.400000 0.400000 0.400000
vn 0.000000 -0.707109 -0.707105
v 2.511801 -0.430511 -0.089207 0.184314 0.184314 0.184314
vn 0.000000 -1.000000 0.000000
v 2.511801 -0.467461 -0.000000 0.129412 0.129412 0.129412
vn 0.000000 -0.707109 0.707105
v 2.511801 -0.430511 0.089207 0.203922 0.203922 0.203922
vn 0.000000 0.000002 1.000000
v 2.511801 -0.341303 0.126158 0.309804 0.309804 0.309804
vn 0.000000 0.707110 0.707103
v 2.511801 -0.252096 0.089207 0.400000 0.400000 0.400000
vn 0.000000 1.000000 -0.000000
v 2.511801 -0.215146 -0.000000 0.400000 0.400000 0.400000
vn -0.630262 0.548988 -0.548983
v 2.482421 -0.252096 -0.089207 0.400000 0.400000 0.400000
vn -0.630264 -0.000001 -0.776381
v 2.482421 -0.341303 -0.126158 0.400000 0.400000 0.400000
vn -0.630257 -0.548992 -0.548984
v 2.482422 -0.430511 -0.089207 0.149020 0.149020 0.149020
vn -0.630261 -0.776384 -0.000000
v 2.482422 -0.467461 -0.000000 0.121569 0.121569 0.121569
vn -0.630257 -0.548992 0.548984
v 2.482422 -0.430511 0.089207 0.184314 0.184314 0.184314
vn -0.630264 -0.000001 0.776381
v 2.482421 -0.341303 0.126158 0.294118 0.294118 0.294118
vn -0.630262 0.548988 0.548983
v 2.482421 -0.252096 0.089207 0.376471 0.376471 0.376471
vn -0.630264 0.776381 0.000000
v 2.482421 -0.215146 -0.000000 0.400000 0.400000 0.400000
vn -1.000000 -0.000006 0.000000
v 2.482421 -0.341303 -0.000000 0.400000 0.400000 0.400000
vn 0.124960 0.121157 -0.984737
v -2.487377 -0.800034 1.381888 0.101961 0.776471 0.921569
vn -0.120308 0.124215 -0.984935
v 1.884409 -0.957193 1.381888 0.101961 0.776471 0.921569
vn -0.101621 0.502792 -0.858413
v 1.884409 -1.272399 1.297429 0.101961 0.772549 0.921569
vn 0.119476 0.497245 -0.859345
v -2.487377 -1.115240 1.297429 0.129412 0.752941 0.925490
vn -0.790921 0.432691 0.432692
v 2.382955 -1.229584 -0.781993 0.101961 0.776471 0.921569
vn -0.432693 0.432691 0.790920
v 2.156801 -1.229584 -1.008148 0.101961 0.776471 0.921569
vn -0.432693 0.790920 0.432692
v 2.156801 -1.455739 -0.781993 0.101961 0.776471 0.921569
vn -0.500046 0.858905 0.110618
v 2.199615 -1.503146 -0.509602 0.101961 0.776471 0.921569
vn -0.858904 0.500047 0.110618
v 2.430362 -1.272399 -0.509602 0.101961 0.776471 0.921569
vn -0.858904 0.110618 0.500048
v 2.430362 -0.957192 -0.824808 0.101961 0.776471 0.921569
vn -0.500047 0.110618 0.858905
v 2.199615 -0.957192 -1.055555 0.101961 0.776471 0.921569
vn -0.984833 0.122687 0.122687
v 2.514822 -0.957192 -0.509602 0.101961 0.776471 0.921569
vn -0.318863 0.770262 0.552289
v 2.199615 0.007151 -1.055555 0.101961 0.776471 0.921569
vn -0.088122 0.737700 0.669353
v 1.884409 0.007151 -1.140014 0.101961 0.776471 0.921569
vn -0.120307 0.124214 0.984935
v 1.884409 -0.957192 -1.140014 0.101961 0.776471 0.921569
vn -0.577350 -0.577350 0.577350
v -3.484049 -1.780892 1.735943 0.129412 0.752941 0.925490
vn 0.577350 -0.577350 0.577350
v 2.975976 -1.780892 1.735943 0.129412 0.752941 0.925490
vn 0.577351 0.577350 0.577350
v 2.975976 0.007150 1.735943 0.109804 0.764706 0.921569
vn -0.577350 0.577350 0.577350
v -3.484049 0.007150 1.735943 0.129412 0.752941 0.925490
vn -0.500047 0.858905 -0.110618
v 2.199615 -1.503146 0.751475 0.101961 0.776471 0.921569
vn -0.105020 0.986868 0.122727
v 1.884409 -1.587605 -0.509602 0.101961 0.776471 0.921569
vn -0.105020 0.986868 -0.122727
v 1.884409 -1.587605 0.751475 0.101961 0.776471 0.921569
vn 0.088122 0.737701 -0.669352
v -2.487377 0.007151 1.381888 0.129412 0.752941 0.925490
vn -0.088122 0.737701 -0.669352
v 1.884409 0.007151 1.381888 0.101961 0.776471 0.921569
vn -0.095160 0.861037 -0.499559
v 1.884409 -1.503146 1.066681 0.101961 0.776471 0.921569
vn -0.669352 0.737700 -0.088123
v 2.514822 0.007150 0.751475 0.101961 0.776471 0.921569
vn -0.552286 0.770263 -0.318865
v 2.430362 0.007151 1.066682 0.101961 0.776471 0.921569
vn -0.318864 0.770262 -0.552288
v 2.199615 0.007151 1.297429 0.101961 0.776471 0.921569
vn 0.318864 0.770263 -0.552287
v -2.802584 0.007151 1.297429 0.129412 0.752941 0.925490
vn 0.552288 0.770262 -0.318864
v -3.033330 0.007151 1.066682 0.125490 0.752941 0.921569
vn 0.669350 0.737702 -0.088123
v -3.117790 0.007151 0.751475 0.125490 0.752941 0.921569
vn 0.669353 0.737700 0.088123
v -3.117790 0.007150 -0.509602 0.129412 0.752941 0.925490
vn -0.577350 0.577351 -0.577350
v -3.484049 0.007151 -1.494069 0.129412 0.752941 0.925490
vn -0.432693 0.790920 -0.432692
v 2.156801 -1.455739 1.023867 0.101961 0.776471 0.921569
vn -0.552289 0.770261 0.318866
v 2.430362 0.007150 -0.824808 0.101961 0.776471 0.921569
vn -0.858904 0.500048 -0.110618
v 2.430362 -1.272399 0.751475 0.101961 0.776471 0.921569
vn -0.432693 0.432692 -0.790920
v 2.156801 -1.229584 1.250021 0.101961 0.776471 0.921569
vn -0.790920 0.432692 -0.432692
v 2.382955 -1.229584 1.023867 0.101961 0.776471 0.921569
vn -0.984833 0.122687 -0.122687
v 2.514822 -0.957193 0.751475 0.101961 0.776471 0.921569
vn -0.858904 0.110619 -0.500047
v 2.430362 -0.957193 1.066682 0.101961 0.776471 0.921569
vn -0.500046 0.110619 -0.858905
v 2.199615 -0.957193 1.297429 0.101961 0.776471 0.921569
vn -0.669353 0.737700 0.088123
v 2.514822 0.007150 -0.509602 0.101961 0.776471 0.921569
vn 0.577350 -0.577350 -0.577350
v 2.975976 -1.780892 -1.494070 0.027451 0.250980 0.501961
vn 0.577350 0.577351 -0.577350
v 2.975976 0.007151 -1.494069 0.090196 0.709804 0.870588
vn -0.095160 0.861037 0.499560
v 1.884409 -1.503146 -0.824808 0.101961 0.776471 0.921569
vn -0.101620 0.502791 0.858414
v 1.884409 -1.272399 -1.055555 0.101961 0.776471 0.921569
vn 0.126073 0.856547 -0.500432
v -2.487377 -1.345987 1.066681 0.129412 0.752941 0.925490
vn 0.140362 0.982480 -0.122601
v -2.487377 -1.430446 0.751475 0.129412 0.752941 0.925490
vn 0.432692 0.432693 -0.790920
v -2.759769 -1.072425 1.250021 0.129412 0.752941 0.925490
vn 0.500046 0.110620 -0.858904
v -2.802584 -0.800034 1.297429 0.129412 0.752941 0.925490
vn 0.790921 0.432692 -0.432692
v -2.985924 -1.072425 1.023867 0.129412 0.752941 0.925490
vn 0.432691 0.790920 -0.432693
v -2.759769 -1.298580 1.023867 0.129412 0.752941 0.925490
vn 0.858905 0.110617 -0.500047
v -3.033330 -0.800034 1.066682 0.129412 0.752941 0.925490
vn 0.984833 0.122687 -0.122686
v -3.117790 -0.800034 0.751475 0.129412 0.752941 0.925490
vn 0.140363 0.982480 0.122603
v -2.487377 -1.430446 -0.509602 0.129412 0.752941 0.925490
vn 0.500047 0.858904 -0.110618
v -2.802584 -1.345987 0.751475 0.129412 0.752941 0.925490
vn 0.858904 0.500047 -0.110617
v -3.033330 -1.115240 0.751475 0.129412 0.752941 0.925490
vn 0.088122 0.737700 0.669353
v -2.487377 0.007151 -1.140014 0.129412 0.752941 0.925490
vn 0.124959 0.121157 0.984737
v -2.487377 -0.800033 -1.140014 0.125490 0.752941 0.921569
vn -0.577350 -0.577350 -0.577350
v -3.484049 -1.780892 -1.494070 0.101961 0.776471 0.921569
vn 0.126074 0.856546 0.500434
v -2.487377 -1.345986 -0.824808 0.129412 0.752941 0.925490
vn 0.119474 0.497244 0.859345
v -2.487377 -1.115239 -1.055555 0.129412 0.752941 0.925490
vn 0.500048 0.858904 0.110619
v -2.802584 -1.345986 -0.509602 0.129412 0.752941 0.925490
vn 0.432692 0.432693 0.790920
v -2.759769 -1.072425 -1.008148 0.129412 0.752941 0.925490
vn 0.500047 0.110618 0.858904
v -2.802584 -0.800033 -1.055555 0.129412 0.752941 0.925490
vn 0.858905 0.500047 0.110617
v -3.033330 -1.115239 -0.509602 0.129412 0.752941 0.925490
vn 0.790921 0.432692 0.432692
v -2.985924 -1.072425 -0.781993 0.129412 0.752941 0.925490
vn 0.984833 0.122687 0.122687
v -3.117790 -0.800033 -0.509602 0.129412 0.752941 0.925490
vn 0.858904 0.110617 0.500047
v -3.033330 -0.800033 -0.824808 0.129412 0.752941 0.925490
vn 0.432691 0.790921 0.432692
v -2.759769 -1.298579 -0.781993 0.129412 0.752941 0.925490
vn 0.552289 0.770261 0.318866
v -3.033330 0.007150 -0.824808 0.129412 0.752941 0.925490
vn 0.318863 0.770262 0.552288
v -2.802584 0.007151 -1.055555 0.129412 0.752941 0.925490
# 130 vertices, 0 vertices normals


usemtl material_0
vt 0.122077 0.742071
vt 0.122217 0.751015
vt 0.113215 0.742210
f 1/1/1 12/2/12 3/3/3
vt 0.113355 0.751154
f 3/3/3 12/2/12 9/4/9
vt 0.104271 0.742350
vt 0.113076 0.733348
f 3/3/3 9/5/9 5/6/5
vt 0.104132 0.733488
f 5/6/5 9/5/9 10/7/10
vt 0.112936 0.724404
vt 0.121938 0.733209
f 5/6/5 10/8/10 7/9/7
vt 0.121798 0.724265
f 7/9/7 10/8/10 11/10/11
vt 0.128914 0.733099
vt 0.137858 0.732959
vt 0.129052 0.741962
f 13/11/13 14/12/14 16/13/16
vt 0.137996 0.741822
f 16/13/16 14/12/14 15/14/15
f 7/9/7 1/1/1 5/6/5
f 5/6/5 1/1/1 3/3/3
vt 0.070809 0.742874
f 9/5/9 4/15/4 10/7/10
vt 0.070671 0.734012
f 10/7/10 4/15/4 6/16/6
vt 0.104548 0.760075
vt 0.104687 0.768937
vt 0.071087 0.760599
f 11/17/11 10/18/10 8/19/8
vt 0.071226 0.769462
f 8/19/8 10/18/10 6/20/6
vt 0.104409 0.751212
vt 0.070948 0.751737
f 12/21/12 11/17/11 2/22/2
f 2/22/2 11/17/11 8/19/8
f 9/5/9 12/21/12 4/15/4
f 4/15/4 12/21/12 2/22/2
f 7/9/7 11/10/11 13/11/13
vt 0.128774 0.724155
f 13/11/13 11/10/11 14/23/14
vt 0.111524 0.759966
f 11/17/11 12/21/12 14/24/14
vt 0.111385 0.751103
f 14/24/14 12/21/12 15/25/15
vt 0.129192 0.750906
f 12/2/12 1/1/1 15/26/15
f 15/26/15 1/1/1 16/13/16
f 1/1/1 7/9/7 16/13/16
f 16/13/16 7/9/7 13/11/13
vt 0.170505 0.761696
vt 0.170504 0.752832
vt 0.179299 0.766205
f 4/27/4 2/28/2 18/29/18
vt 0.179294 0.726221
f 18/29/18 2/28/2 17/30/17
vt 0.161641 0.761697
vt 0.152848 0.766209
f 6/31/6 4/27/4 19/32/19
f 19/32/19 4/27/4 18/29/18
vt 0.161640 0.752833
f 6/31/6 19/32/19 8/33/8
vt 0.152843 0.726224
f 8/33/8 19/32/19 20/34/20
f 2/28/2 8/33/8 17/30/17
f 17/30/17 8/33/8 20/34/20
vt 0.181365 0.766205
f 18/29/18 17/30/17 22/35/22
vt 0.181360 0.726221
f 22/35/22 17/30/17 21/36/21
vt 0.152848 0.768274
f 19/32/19 18/29/18 23/37/23
vt 0.179299 0.768271
f 23/37/23 18/29/18 22/38/22
vt 0.150777 0.726225
f 20/34/20 19/32/19 24/39/24
vt 0.150782 0.766209
f 24/39/24 19/32/19 23/40/23
vt 0.179294 0.724155
f 17/30/17 20/34/20 21/41/21
vt 0.152843 0.724159
f 21/41/21 20/34/20 24/42/24
vt 0.179304 0.808255
f 22/38/22 21/43/21 23/37/23
vt 0.152853 0.808258
f 23/37/23 21/43/21 24/44/24
vt 0.112431 0.657530
vt 0.104993 0.653393
vt 0.113689 0.655266
f 25/45/25 26/46/26 33/47/33
vt 0.106252 0.651130
f 33/47/33 26/46/26 34/48/34
vt 0.103762 0.651840
vt 0.101428 0.643655
f 26/49/26 27/50/27 34/48/34
vt 0.103918 0.642945
f 34/48/34 27/50/27 35/51/35
vt 0.101655 0.641686
vt 0.105792 0.634249
f 27/52/27 28/53/28 35/51/35
vt 0.108055 0.635508
f 35/51/35 28/53/28 36/54/36
vt 0.107345 0.633017
vt 0.115529 0.630684
f 28/55/28 29/56/29 36/54/36
vt 0.116239 0.633174
f 36/54/36 29/56/29 37/57/37
vt 0.117498 0.630911
vt 0.124936 0.635048
f 29/58/29 30/59/30 37/57/37
vt 0.123677 0.637311
f 37/57/37 30/59/30 38/60/38
vt 0.126167 0.636601
vt 0.128501 0.644785
f 30/61/30 31/62/31 38/60/38
vt 0.126011 0.645495
f 38/60/38 31/62/31 39/63/39
vt 0.128274 0.646754
vt 0.124137 0.654191
f 31/64/31 32/65/32 39/63/39
vt 0.121874 0.652933
f 39/63/39 32/65/32 40/66/40
vt 0.122584 0.655423
vt 0.114399 0.657757
f 32/67/32 25/68/25 40/66/40
f 40/66/40 25/68/25 33/47/33
vt 0.114964 0.644220
f 33/47/33 34/48/34 41/69/41
f 34/48/34 35/51/35 41/69/41
f 35/51/35 36/54/36 41/69/41
f 36/54/36 37/57/37 41/69/41
f 37/57/37 38/60/38 41/69/41
f 38/60/38 39/63/39 41/69/41
f 39/63/39 40/66/40 41/69/41
f 40/66/40 33/47/33 41/69/41
vt 0.144502 0.648074
vt 0.141026 0.643053
vt 0.146029 0.647016
f 42/70/42 43/71/43 50/72/50
vt 0.142554 0.641995
f 50/72/50 43/71/43 51/73/51
vt 0.140725 0.641663
vt 0.141818 0.635655
f 43/74/43 44/75/44 51/73/51
vt 0.143646 0.635987
f 51/73/51 44/75/44 52/76/52
vt 0.142588 0.634460
vt 0.147609 0.630984
f 44/77/44 45/78/45 52/76/52
vt 0.148667 0.632512
f 52/76/52 45/78/45 53/79/53
vt 0.148999 0.630684
vt 0.155007 0.631776
f 45/80/45 46/81/46 53/79/53
vt 0.154675 0.633604
f 53/79/53 46/81/46 54/82/54
vt 0.156202 0.632547
vt 0.159678 0.637567
f 46/83/46 47/84/47 54/82/54
vt 0.158150 0.638625
f 54/82/54 47/84/47 55/85/55
vt 0.159979 0.638957
vt 0.158886 0.644965
f 47/86/47 48/87/48 55/85/55
vt 0.157058 0.644633
f 55/85/55 48/87/48 56/88/56
vt 0.158116 0.646160
vt 0.153095 0.649636
f 48/89/48 49/90/49 56/88/56
vt 0.152037 0.648109
f 56/88/56 49/90/49 57/91/57
vt 0.151705 0.649936
vt 0.145697 0.648844
f 49/92/49 42/93/42 57/91/57
f 57/91/57 42/93/42 50/72/50
vt 0.150352 0.640310
f 50/72/50 51/73/51 58/94/58
f 51/73/51 52/76/52 58/94/58
f 52/76/52 53/79/53 58/94/58
f 53/79/53 54/82/54 58/94/58
f 54/82/54 55/85/55 58/94/58
f 55/85/55 56/88/56 58/94/58
f 56/88/56 57/91/57 58/94/58
f 57/91/57 50/72/50 58/94/58
vt 0.275325 0.124501
vt 0.278782 0.401499
vt 0.254818 0.125523
f 59/95/59 60/96/60 62/97/62
vt 0.258314 0.402361
f 62/97/62 60/96/60 61/98/61
vt 0.120417 0.444982
vt 0.102560 0.434962
vt 0.119216 0.423230
f 63/99/63 64/100/64 65/101/65
vt 0.138236 0.444409
f 63/99/63 65/101/65 67/102/67
vt 0.137973 0.424344
f 67/102/67 65/101/65 66/103/66
vt 0.093765 0.450159
f 64/100/64 63/99/63 69/104/69
vt 0.111632 0.460507
f 69/104/69 63/99/63 68/105/68
vt 0.118007 0.463950
vt 0.138534 0.464678
f 68/106/68 63/99/63 70/107/70
f 70/107/70 63/99/63 67/102/67
vt 0.015625 0.423775
vt 0.015801 0.403096
vt 0.077346 0.424860
f 71/108/71 72/109/72 69/110/69
vt 0.076762 0.404233
f 69/110/69 72/109/72 73/111/73
vt 0.799468 0.556281
vt 0.390922 0.556307
vt 0.799461 0.443201
f 74/112/74 75/113/75 77/114/77
vt 0.390915 0.443227
f 77/114/77 75/113/75 76/115/76
vt 0.218510 0.423214
vt 0.217519 0.403204
f 78/116/78 66/103/66 80/117/80
vt 0.138186 0.404297
f 80/117/80 66/103/66 79/118/79
vt 0.326262 0.121859
vt 0.339679 0.398799
f 81/119/81 82/120/82 59/95/59
f 59/95/59 82/120/82 60/96/60
vt 0.237151 0.421605
f 78/116/78 80/117/80 92/121/92
vt 0.237911 0.403012
f 92/121/92 80/117/80 83/122/83
vt 0.080888 0.513241
vt 0.063064 0.502836
f 93/123/93 71/124/71 68/105/68
f 68/105/68 71/124/71 69/104/69
vt 0.218554 0.443478
f 94/125/94 67/102/67 78/116/78
f 78/116/78 67/102/67 66/103/66
vt 0.259154 0.420101
vt 0.249399 0.438108
f 92/121/92 95/126/95 96/127/96
vt 0.236659 0.443917
vt 0.218709 0.463779
f 94/125/94 96/128/96 97/129/97
vt 0.239325 0.462700
f 97/129/97 96/128/96 98/130/98
f 61/98/61 60/96/60 95/126/95
vt 0.278521 0.422017
f 95/126/95 60/96/60 99/131/99
vt 0.139163 0.525581
vt 0.118375 0.525636
f 100/132/100 93/133/93 70/107/70
f 70/107/70 93/133/93 68/106/68
f 97/129/97 70/107/70 94/125/94
f 94/125/94 70/107/70 67/102/67
f 92/121/92 96/128/96 78/116/78
f 78/116/78 96/128/96 94/125/94
f 95/126/95 92/121/92 61/98/61
f 61/98/61 92/121/92 83/122/83
vt 0.219531 0.524631
f 84/134/84 100/132/100 97/129/97
f 97/129/97 100/132/100 70/107/70
vt 0.390934 0.760580
vt 0.277842 0.556314
f 75/113/75 101/135/101 76/136/76
vt 0.277854 0.760587
f 76/136/76 101/135/101 102/137/102
vt 0.264800 0.446654
f 96/127/96 95/126/95 98/138/98
vt 0.274787 0.428577
f 98/138/98 95/126/95 99/139/99
vt 0.240199 0.524198
f 85/140/85 84/134/84 98/130/98
f 98/130/98 84/134/84 97/129/97
vt 0.340371 0.419614
f 82/120/82 86/141/86 60/96/60
f 60/96/60 86/141/86 99/131/99
vt 0.328161 0.458154
vt 0.318153 0.476207
f 86/142/86 85/143/85 99/139/99
f 99/139/99 85/143/85 98/138/98
vt 0.096501 0.422641
f 69/110/69 73/111/73 64/144/64
vt 0.097265 0.404577
f 64/144/64 73/111/73 104/145/104
f 66/103/66 65/101/65 79/118/79
vt 0.117754 0.404749
f 79/118/79 65/101/65 103/146/103
f 65/101/65 64/144/64 103/146/103
f 103/146/103 64/144/64 104/145/104
vt 0.234309 0.126335
f 62/97/62 61/98/61 105/147/105
f 105/147/105 61/98/61 83/122/83
vt 0.213849 0.127102
f 105/147/105 83/122/83 106/148/106
f 106/148/106 83/122/83 80/117/80
vt 0.254671 0.107499
f 62/97/62 107/149/107 59/95/59
vt 0.273343 0.103972
f 59/95/59 107/149/107 108/150/108
vt 0.231403 0.086297
vt 0.249237 0.096291
vt 0.232472 0.107916
f 109/151/109 107/152/107 110/153/110
vt 0.233903 0.067440
vt 0.213399 0.066592
f 111/154/111 109/151/109 112/155/112
vt 0.213644 0.086888
f 112/155/112 109/151/109 115/156/115
vt 0.134382 0.128215
f 113/157/113 106/148/106 79/118/79
f 79/118/79 106/148/106 80/117/80
vt 0.324940 0.101209
f 87/158/87 81/119/81 108/150/108
f 108/150/108 81/119/81 59/95/59
vt 0.213908 0.106997
f 114/159/114 110/153/110 106/148/106
f 106/148/106 110/153/110 105/147/105
vt 0.021999 0.125907
vt 0.072974 0.127242
f 116/160/116 117/161/117 72/109/72
f 72/109/72 117/161/117 73/111/73
vt 0.799481 0.760555
f 118/162/118 101/135/101 74/112/74
f 74/112/74 101/135/101 75/113/75
vt 0.265657 0.026520
vt 0.283529 0.036843
vt 0.240117 0.070771
f 88/163/88 87/164/87 111/165/111
vt 0.258026 0.081051
f 111/165/111 87/164/87 108/166/108
f 79/118/79 103/146/103 113/157/113
vt 0.113945 0.128071
f 113/157/113 103/146/103 119/167/119
vt 0.093485 0.127746
f 104/145/104 73/111/73 120/168/120
f 120/168/120 73/111/73 117/161/117
f 103/146/103 104/145/104 119/167/119
f 119/167/119 104/145/104 120/168/120
vt 0.212970 0.015625
vt 0.233794 0.015685
f 89/169/89 88/170/88 112/155/112
f 112/155/112 88/170/88 111/154/111
vt 0.133578 0.108111
vt 0.115162 0.109554
f 121/171/121 113/157/113 128/172/128
f 128/172/128 113/157/113 119/167/119
vt 0.093466 0.109984
f 120/168/120 117/161/117 122/173/122
vt 0.074611 0.106792
f 122/173/122 117/161/117 123/174/123
vt 0.133508 0.087820
vt 0.115467 0.087381
vt 0.133300 0.067501
f 124/175/124 125/176/125 126/177/126
vt 0.112700 0.068686
f 126/177/126 125/176/125 127/178/127
vt 0.799488 0.873635
vt 0.390941 0.873660
f 91/179/91 102/180/102 118/162/118
f 118/162/118 102/180/102 101/135/101
f 110/153/110 107/149/107 105/147/105
f 105/147/105 107/149/107 62/97/62
f 107/152/107 109/151/109 108/166/108
f 108/166/108 109/151/109 111/165/111
vt 0.103937 0.092436
f 128/172/128 122/173/122 125/181/125
f 109/151/109 110/153/110 115/156/115
f 115/156/115 110/153/110 114/159/114
vt 0.132511 0.016600
f 90/182/90 89/169/89 126/177/126
f 126/177/126 89/169/89 112/155/112
f 106/148/106 113/157/113 114/159/114
f 114/159/114 113/157/113 121/171/121
f 115/156/115 124/175/124 112/155/112
f 112/155/112 124/175/124 126/177/126
f 114/159/114 121/171/121 115/156/115
f 115/156/115 121/171/121 124/175/124
vt 0.022815 0.105081
f 116/160/116 130/183/130 117/161/117
f 117/161/117 130/183/130 123/174/123
vt 0.111830 0.017135
f 129/184/129 90/182/90 127/178/127
f 127/178/127 90/182/90 126/177/126
vt 0.912561 0.760548
f 118/162/118 74/112/74 91/185/91
vt 0.912548 0.556274
f 91/185/91 74/112/74 77/186/77
vt 0.034557 0.074339
vt 0.045293 0.056709
vt 0.078190 0.100898
f 130/187/130 129/188/129 123/189/123
vt 0.088903 0.083242
f 123/189/123 129/188/129 127/190/127
f 122/173/122 128/172/128 120/168/120
f 120/168/120 128/172/128 119/167/119
f 128/172/128 125/176/125 121/171/121
f 121/171/121 125/176/125 124/175/124
f 125/181/125 122/173/122 127/190/127
f 127/190/127 122/173/122 123/189/123
vt 0.776380 0.331761
vt 0.776375 0.252008
vt 0.799547 0.394020
f 89/191/89 90/192/90 77/193/77
vt 0.799534 0.189746
f 77/193/77 90/192/90 91/194/91
vt 0.736504 0.212141
vt 0.460022 0.212159
f 116/195/116 72/196/72 91/194/91
vt 0.390987 0.189772
f 91/194/91 72/196/72 102/197/102
vt 0.756438 0.217482
f 116/195/116 91/194/91 130/198/130
vt 0.771032 0.232074
f 90/192/90 129/199/129 91/194/91
f 129/199/129 130/198/130 91/194/91
vt 0.440088 0.217501
f 72/196/72 71/200/71 102/197/102
vt 0.771040 0.351696
f 89/191/89 77/193/77 88/201/88
vt 0.425496 0.232095
f 71/200/71 93/202/93 102/197/102
vt 0.756448 0.366290
f 88/201/88 77/193/77 87/203/87
vt 0.420156 0.252030
f 93/202/93 100/204/100 102/197/102
vt 0.391000 0.394045
f 102/197/102 100/204/100 76/205/76
vt 0.420161 0.331783
f 100/204/100 84/206/84 76/205/76
vt 0.425503 0.351717
f 84/206/84 85/207/85 76/205/76
vt 0.440097 0.366309
f 85/207/85 86/208/86 76/205/76
vt 0.736514 0.371632
f 87/203/87 77/193/77 81/209/81
f 77/193/77 76/205/76 81/209/81
vt 0.460032 0.371649
f 81/209/81 76/205/76 82/210/82
f 76/205/76 86/208/86 82/210/82
# 232 faces, 210 coords texture

# End of File
